<svg width="61" height="60" viewBox="0 0 61 60" fill="none" xmlns="http://www.w3.org/2000/svg">
<rect x="0.5" width="60" height="60" rx="8" fill="#0D53E0"/>
<path d="M42.46 22.7683L31.46 16.7495C31.1661 16.5871 30.8358 16.502 30.5 16.502C30.1642 16.502 29.8339 16.5871 29.54 16.7495L18.54 22.7708C18.2259 22.9427 17.9636 23.1957 17.7807 23.5036C17.5978 23.8114 17.5008 24.1627 17.5 24.5208V36.4758C17.5008 36.8339 17.5978 37.1852 17.7807 37.493C17.9636 37.8008 18.2259 38.0539 18.54 38.2258L29.54 44.247C29.8339 44.4094 30.1642 44.4946 30.5 44.4946C30.8358 44.4946 31.1661 44.4094 31.46 44.247L42.46 38.2258C42.7741 38.0539 43.0364 37.8008 43.2193 37.493C43.4023 37.1852 43.4992 36.8339 43.5 36.4758V24.522C43.4999 24.1633 43.4032 23.8112 43.2203 23.5027C43.0373 23.1941 42.7747 22.9405 42.46 22.7683ZM30.5 18.4995L40.5425 23.9995L36.8213 26.037L26.7775 20.537L30.5 18.4995ZM30.5 29.4995L20.4575 23.9995L24.695 21.6795L34.7375 27.1795L30.5 29.4995ZM19.5 25.7495L29.5 31.222V41.9458L19.5 36.477V25.7495ZM41.5 36.472L31.5 41.9458V31.227L35.5 29.0383V33.4995C35.5 33.7648 35.6054 34.0191 35.7929 34.2066C35.9804 34.3942 36.2348 34.4995 36.5 34.4995C36.7652 34.4995 37.0196 34.3942 37.2071 34.2066C37.3946 34.0191 37.5 33.7648 37.5 33.4995V27.9433L41.5 25.7495V36.4708V36.472Z" fill="white"/>
</svg>
