<svg width="61" height="60" viewBox="0 0 61 60" fill="none" xmlns="http://www.w3.org/2000/svg">
<rect x="0.5" width="60" height="60" rx="8" fill="#0D53E0"/>
<path d="M35.5 21C35.5 20.7348 35.6054 20.4804 35.7929 20.2929C35.9805 20.1054 36.2348 20 36.5 20H38.5V18C38.5 17.7348 38.6054 17.4804 38.7929 17.2929C38.9805 17.1054 39.2348 17 39.5 17C39.7652 17 40.0196 17.1054 40.2071 17.2929C40.3947 17.4804 40.5 17.7348 40.5 18V20H42.5C42.7652 20 43.0196 20.1054 43.2071 20.2929C43.3947 20.4804 43.5 20.7348 43.5 21C43.5 21.2652 43.3947 21.5196 43.2071 21.7071C43.0196 21.8947 42.7652 22 42.5 22H40.5V24C40.5 24.2652 40.3947 24.5196 40.2071 24.7071C40.0196 24.8947 39.7652 25 39.5 25C39.2348 25 38.9805 24.8947 38.7929 24.7071C38.6054 24.5196 38.5 24.2652 38.5 24V22H36.5C36.2348 22 35.9805 21.8947 35.7929 21.7071C35.6054 21.5196 35.5 21.2652 35.5 21ZM43.32 27.835C43.7769 30.5507 43.3589 33.3413 42.1263 35.804C40.8938 38.2666 38.9105 40.2738 36.4628 41.5358C34.0151 42.7978 31.2297 43.2492 28.5087 42.8249C25.7877 42.4006 23.272 41.1226 21.3247 39.1753C19.3774 37.2281 18.0994 34.7123 17.6751 31.9913C17.2509 29.2704 17.7023 26.4849 18.9643 24.0373C20.2262 21.5896 22.2334 19.6063 24.6961 18.3737C27.1587 17.1412 29.9493 16.7232 32.665 17.18C32.9246 17.2259 33.1556 17.3725 33.3077 17.5878C33.4598 17.8031 33.5207 18.0697 33.4772 18.3297C33.4337 18.5897 33.2893 18.822 33.0754 18.9761C32.8615 19.1302 32.5954 19.1936 32.335 19.1525C30.7577 18.8872 29.1415 18.9687 27.5989 19.3915C26.0563 19.8143 24.6243 20.5682 23.4027 21.6006C22.181 22.6331 21.1991 23.9194 20.5251 25.3699C19.8511 26.8205 19.5013 28.4005 19.5 30C19.4977 32.6928 20.4873 35.292 22.28 37.3013C23.3953 35.6851 24.9636 34.4348 26.7875 33.7075C25.8078 32.9358 25.0928 31.878 24.7421 30.6811C24.3914 29.4843 24.4224 28.2079 24.8308 27.0294C25.2391 25.851 26.0046 24.8291 27.0206 24.1059C28.0367 23.3826 29.2529 22.994 30.5 22.994C31.7472 22.994 32.9634 23.3826 33.9795 24.1059C34.9955 24.8291 35.7609 25.851 36.1693 27.0294C36.5777 28.2079 36.6086 29.4843 36.2579 30.6811C35.9072 31.878 35.1923 32.9358 34.2125 33.7075C36.0365 34.4348 37.6047 35.6851 38.72 37.3013C40.5127 35.292 41.5024 32.6928 41.5 30C41.5001 29.3852 41.4491 28.7714 41.3475 28.165C41.3245 28.0349 41.3275 27.9016 41.3564 27.7727C41.3852 27.6437 41.4393 27.5218 41.5155 27.4139C41.5917 27.306 41.6885 27.2143 41.8004 27.144C41.9123 27.0738 42.037 27.0264 42.1672 27.0046C42.2975 26.9828 42.4309 26.987 42.5595 27.017C42.6881 27.0471 42.8096 27.1023 42.9168 27.1795C43.0239 27.2567 43.1148 27.3544 43.184 27.4669C43.2532 27.5794 43.2994 27.7045 43.32 27.835ZM30.5 33C31.2912 33 32.0645 32.7654 32.7223 32.3259C33.3801 31.8864 33.8928 31.2617 34.1956 30.5307C34.4983 29.7998 34.5775 28.9956 34.4232 28.2197C34.2688 27.4437 33.8879 26.731 33.3285 26.1716C32.769 25.6122 32.0563 25.2312 31.2804 25.0769C30.5045 24.9225 29.7002 25.0017 28.9693 25.3045C28.2384 25.6072 27.6137 26.1199 27.1742 26.7777C26.7346 27.4355 26.5 28.2089 26.5 29C26.5 30.0609 26.9215 31.0783 27.6716 31.8284C28.4218 32.5786 29.4392 33 30.5 33ZM30.5 41C32.9417 41.0025 35.3142 40.1885 37.24 38.6875C36.5166 37.5561 35.52 36.625 34.3421 35.9801C33.1642 35.3351 31.8429 34.9971 30.5 34.9971C29.1571 34.9971 27.8358 35.3351 26.6579 35.9801C25.48 36.625 24.4835 37.5561 23.76 38.6875C25.6859 40.1885 28.0583 41.0025 30.5 41Z" fill="white"/>
</svg>
