<svg width="1441" height="920" viewBox="0 0 1441 920" fill="none" xmlns="http://www.w3.org/2000/svg">
<g clip-path="url(#clip0_705_26)">
<rect width="1441" height="920" fill="#F5F5F5"/>
<rect x="176.5" y="349.5" width="99" height="99" fill="#4680F5" fill-opacity="0.06"/>
<rect x="176.5" y="349.5" width="99" height="99" stroke="#E1E6EE"/>
<rect x="176.5" y="745.5" width="99" height="99" fill="#4680F5" fill-opacity="0.06"/>
<rect x="176.5" y="745.5" width="99" height="99" stroke="#E1E6EE"/>
<rect x="176.5" y="151.5" width="99" height="99" fill="#4680F5" fill-opacity="0.06"/>
<rect x="176.5" y="151.5" width="99" height="99" stroke="#E1E6EE"/>
<rect x="176.5" y="547.5" width="99" height="99" fill="#4680F5" fill-opacity="0.06"/>
<rect x="176.5" y="547.5" width="99" height="99" stroke="#E1E6EE"/>
<rect x="176.5" y="250.5" width="99" height="99" fill="#4680F5" fill-opacity="0.08"/>
<rect x="176.5" y="250.5" width="99" height="99" stroke="#E1E6EE"/>
<rect x="176.5" y="646.5" width="99" height="99" fill="#4680F5" fill-opacity="0.06"/>
<rect x="176.5" y="646.5" width="99" height="99" stroke="#E1E6EE"/>
<rect x="176.5" y="52.5" width="99" height="99" fill="#4680F5" fill-opacity="0.06"/>
<rect x="176.5" y="52.5" width="99" height="99" stroke="#E1E6EE"/>
<rect x="176.5" y="448.5" width="99" height="99" fill="#4680F5" fill-opacity="0.06"/>
<rect x="176.5" y="448.5" width="99" height="99" stroke="#E1E6EE"/>
<rect x="473.5" y="349.5" width="99" height="99" fill="#4680F5" fill-opacity="0.06"/>
<rect x="473.5" y="349.5" width="99" height="99" stroke="#E1E6EE"/>
<rect x="1166.5" y="349.5" width="99" height="99" fill="#4680F5" fill-opacity="0.06"/>
<rect x="1166.5" y="349.5" width="99" height="99" stroke="#E1E6EE"/>
<rect x="473.5" y="745.5" width="99" height="99" fill="#4680F5" fill-opacity="0.06"/>
<rect x="473.5" y="745.5" width="99" height="99" stroke="#E1E6EE"/>
<rect x="1166.5" y="745.5" width="99" height="99" fill="#4680F5" fill-opacity="0.06"/>
<rect x="1166.5" y="745.5" width="99" height="99" stroke="#E1E6EE"/>
<rect x="473.5" y="151.5" width="99" height="99" fill="#4680F5" fill-opacity="0.06"/>
<rect x="473.5" y="151.5" width="99" height="99" stroke="#E1E6EE"/>
<rect x="1166.5" y="151.5" width="99" height="99" fill="#4680F5" fill-opacity="0.06"/>
<rect x="1166.5" y="151.5" width="99" height="99" stroke="#E1E6EE"/>
<rect x="473.5" y="547.5" width="99" height="99" fill="#4680F5" fill-opacity="0.06"/>
<rect x="473.5" y="547.5" width="99" height="99" stroke="#E1E6EE"/>
<rect x="1166.5" y="547.5" width="99" height="99" fill="#4680F5" fill-opacity="0.06"/>
<rect x="1166.5" y="547.5" width="99" height="99" stroke="#E1E6EE"/>
<rect x="473.5" y="250.5" width="99" height="99" fill="#4680F5" fill-opacity="0.14"/>
<rect x="473.5" y="250.5" width="99" height="99" stroke="#E1E6EE"/>
<rect x="1166.5" y="250.5" width="99" height="99" fill="#4680F5" fill-opacity="0.08"/>
<rect x="1166.5" y="250.5" width="99" height="99" stroke="#E1E6EE"/>
<rect x="473.5" y="646.5" width="99" height="99" fill="#4680F5" fill-opacity="0.06"/>
<rect x="473.5" y="646.5" width="99" height="99" stroke="#E1E6EE"/>
<rect x="1166.5" y="646.5" width="99" height="99" fill="#4680F5" fill-opacity="0.06"/>
<rect x="1166.5" y="646.5" width="99" height="99" stroke="#E1E6EE"/>
<rect x="473.5" y="52.5" width="99" height="99" fill="#4680F5" fill-opacity="0.06"/>
<rect x="473.5" y="52.5" width="99" height="99" stroke="#E1E6EE"/>
<rect x="1166.5" y="52.5" width="99" height="99" fill="#4680F5" fill-opacity="0.06"/>
<rect x="1166.5" y="52.5" width="99" height="99" stroke="#E1E6EE"/>
<rect x="473.5" y="448.5" width="99" height="99" fill="#4680F5" fill-opacity="0.08"/>
<rect x="473.5" y="448.5" width="99" height="99" stroke="#E1E6EE"/>
<rect x="1166.5" y="448.5" width="99" height="99" fill="#4680F5" fill-opacity="0.06"/>
<rect x="1166.5" y="448.5" width="99" height="99" stroke="#E1E6EE"/>
<rect x="869.5" y="349.5" width="99" height="99" fill="#4680F5" fill-opacity="0.06"/>
<rect x="869.5" y="349.5" width="99" height="99" stroke="#E1E6EE"/>
<rect x="869.5" y="745.5" width="99" height="99" fill="#4680F5" fill-opacity="0.06"/>
<rect x="869.5" y="745.5" width="99" height="99" stroke="#E1E6EE"/>
<rect x="869.5" y="151.5" width="99" height="99" fill="#4680F5" fill-opacity="0.06"/>
<rect x="869.5" y="151.5" width="99" height="99" stroke="#E1E6EE"/>
<rect x="869.5" y="547.5" width="99" height="99" fill="#4680F5" fill-opacity="0.06"/>
<rect x="869.5" y="547.5" width="99" height="99" stroke="#E1E6EE"/>
<rect x="869.5" y="250.5" width="99" height="99" fill="#4680F5" fill-opacity="0.14"/>
<rect x="869.5" y="250.5" width="99" height="99" stroke="#E1E6EE"/>
<rect x="869.5" y="646.5" width="99" height="99" fill="#4680F5" fill-opacity="0.06"/>
<rect x="869.5" y="646.5" width="99" height="99" stroke="#E1E6EE"/>
<rect x="869.5" y="52.5" width="99" height="99" fill="#4680F5" fill-opacity="0.06"/>
<rect x="869.5" y="52.5" width="99" height="99" stroke="#E1E6EE"/>
<rect x="869.5" y="448.5" width="99" height="99" fill="#4680F5" fill-opacity="0.06"/>
<rect x="869.5" y="448.5" width="99" height="99" stroke="#E1E6EE"/>
<rect x="275.5" y="349.5" width="99" height="99" fill="#4680F5" fill-opacity="0.06"/>
<rect x="275.5" y="349.5" width="99" height="99" stroke="#E1E6EE"/>
<rect x="275.5" y="745.5" width="99" height="99" fill="#4680F5" fill-opacity="0.06"/>
<rect x="275.5" y="745.5" width="99" height="99" stroke="#E1E6EE"/>
<rect x="275.5" y="151.5" width="99" height="99" fill="#4680F5" fill-opacity="0.06"/>
<rect x="275.5" y="151.5" width="99" height="99" stroke="#E1E6EE"/>
<rect x="275.5" y="547.5" width="99" height="99" fill="#4680F5" fill-opacity="0.06"/>
<rect x="275.5" y="547.5" width="99" height="99" stroke="#E1E6EE"/>
<rect x="275.5" y="250.5" width="99" height="99" fill="#4680F5" fill-opacity="0.06"/>
<rect x="275.5" y="250.5" width="99" height="99" stroke="#E1E6EE"/>
<rect x="275.5" y="646.5" width="99" height="99" fill="#4680F5" fill-opacity="0.06"/>
<rect x="275.5" y="646.5" width="99" height="99" stroke="#E1E6EE"/>
<rect x="275.5" y="52.5" width="99" height="99" fill="#4680F5" fill-opacity="0.06"/>
<rect x="275.5" y="52.5" width="99" height="99" stroke="#E1E6EE"/>
<rect x="275.5" y="448.5" width="99" height="99" fill="#4680F5" fill-opacity="0.08"/>
<rect x="275.5" y="448.5" width="99" height="99" stroke="#E1E6EE"/>
<rect x="-21.5" y="349.5" width="99" height="99" fill="#4680F5" fill-opacity="0.06"/>
<rect x="-21.5" y="349.5" width="99" height="99" stroke="#E1E6EE"/>
<rect x="-21.5" y="745.5" width="99" height="99" fill="#4680F5" fill-opacity="0.06"/>
<rect x="-21.5" y="745.5" width="99" height="99" stroke="#E1E6EE"/>
<rect x="-21.5" y="151.5" width="99" height="99" fill="#4680F5" fill-opacity="0.06"/>
<rect x="-21.5" y="151.5" width="99" height="99" stroke="#E1E6EE"/>
<rect x="-21.5" y="547.5" width="99" height="99" fill="#4680F5" fill-opacity="0.06"/>
<rect x="-21.5" y="547.5" width="99" height="99" stroke="#E1E6EE"/>
<rect x="-21.5" y="250.5" width="99" height="99" fill="#4680F5" fill-opacity="0.06"/>
<rect x="-21.5" y="250.5" width="99" height="99" stroke="#E1E6EE"/>
<rect x="-21.5" y="646.5" width="99" height="99" fill="#4680F5" fill-opacity="0.06"/>
<rect x="-21.5" y="646.5" width="99" height="99" stroke="#E1E6EE"/>
<rect x="-21.5" y="52.5" width="99" height="99" fill="#4680F5" fill-opacity="0.06"/>
<rect x="-21.5" y="52.5" width="99" height="99" stroke="#E1E6EE"/>
<rect x="-21.5" y="448.5" width="99" height="99" fill="#4680F5" fill-opacity="0.06"/>
<rect x="-21.5" y="448.5" width="99" height="99" stroke="#E1E6EE"/>
<rect x="572.5" y="349.5" width="99" height="99" fill="#4680F5" fill-opacity="0.06"/>
<rect x="572.5" y="349.5" width="99" height="99" stroke="#E1E6EE"/>
<rect x="1265.5" y="349.5" width="99" height="99" fill="#4680F5" fill-opacity="0.08"/>
<rect x="1265.5" y="349.5" width="99" height="99" stroke="#E1E6EE"/>
<rect x="572.5" y="745.5" width="99" height="99" fill="#4680F5" fill-opacity="0.06"/>
<rect x="572.5" y="745.5" width="99" height="99" stroke="#E1E6EE"/>
<rect x="1265.5" y="745.5" width="99" height="99" fill="#4680F5" fill-opacity="0.06"/>
<rect x="1265.5" y="745.5" width="99" height="99" stroke="#E1E6EE"/>
<rect x="572.5" y="151.5" width="99" height="99" fill="#4680F5" fill-opacity="0.06"/>
<rect x="572.5" y="151.5" width="99" height="99" stroke="#E1E6EE"/>
<rect x="1265.5" y="151.5" width="99" height="99" fill="#4680F5" fill-opacity="0.06"/>
<rect x="1265.5" y="151.5" width="99" height="99" stroke="#E1E6EE"/>
<rect x="572.5" y="547.5" width="99" height="99" fill="#4680F5" fill-opacity="0.06"/>
<rect x="572.5" y="547.5" width="99" height="99" stroke="#E1E6EE"/>
<rect x="1265.5" y="547.5" width="99" height="99" fill="#4680F5" fill-opacity="0.14"/>
<rect x="1265.5" y="547.5" width="99" height="99" stroke="#E1E6EE"/>
<rect x="572.5" y="250.5" width="99" height="99" fill="#4680F5" fill-opacity="0.06"/>
<rect x="572.5" y="250.5" width="99" height="99" stroke="#E1E6EE"/>
<rect x="1265.5" y="250.5" width="99" height="99" fill="#4680F5" fill-opacity="0.06"/>
<rect x="1265.5" y="250.5" width="99" height="99" stroke="#E1E6EE"/>
<rect x="572.5" y="646.5" width="99" height="99" fill="#4680F5" fill-opacity="0.06"/>
<rect x="572.5" y="646.5" width="99" height="99" stroke="#E1E6EE"/>
<rect x="1265.5" y="646.5" width="99" height="99" fill="#4680F5" fill-opacity="0.06"/>
<rect x="1265.5" y="646.5" width="99" height="99" stroke="#E1E6EE"/>
<rect x="572.5" y="52.5" width="99" height="99" fill="#4680F5" fill-opacity="0.06"/>
<rect x="572.5" y="52.5" width="99" height="99" stroke="#E1E6EE"/>
<rect x="1265.5" y="52.5" width="99" height="99" fill="#4680F5" fill-opacity="0.06"/>
<rect x="1265.5" y="52.5" width="99" height="99" stroke="#E1E6EE"/>
<rect x="572.5" y="448.5" width="99" height="99" fill="#4680F5" fill-opacity="0.06"/>
<rect x="572.5" y="448.5" width="99" height="99" stroke="#E1E6EE"/>
<rect x="1265.5" y="448.5" width="99" height="99" fill="#4680F5" fill-opacity="0.06"/>
<rect x="1265.5" y="448.5" width="99" height="99" stroke="#E1E6EE"/>
<rect x="968.5" y="349.5" width="99" height="99" fill="#4680F5" fill-opacity="0.06"/>
<rect x="968.5" y="349.5" width="99" height="99" stroke="#E1E6EE"/>
<rect x="968.5" y="745.5" width="99" height="99" fill="#4680F5" fill-opacity="0.06"/>
<rect x="968.5" y="745.5" width="99" height="99" stroke="#E1E6EE"/>
<rect x="968.5" y="151.5" width="99" height="99" fill="#4680F5" fill-opacity="0.06"/>
<rect x="968.5" y="151.5" width="99" height="99" stroke="#E1E6EE"/>
<rect x="968.5" y="547.5" width="99" height="99" fill="#4680F5" fill-opacity="0.06"/>
<rect x="968.5" y="547.5" width="99" height="99" stroke="#E1E6EE"/>
<rect x="968.5" y="250.5" width="99" height="99" fill="#4680F5" fill-opacity="0.06"/>
<rect x="968.5" y="250.5" width="99" height="99" stroke="#E1E6EE"/>
<rect x="968.5" y="646.5" width="99" height="99" fill="#4680F5" fill-opacity="0.06"/>
<rect x="968.5" y="646.5" width="99" height="99" stroke="#E1E6EE"/>
<rect x="968.5" y="52.5" width="99" height="99" fill="#4680F5" fill-opacity="0.06"/>
<rect x="968.5" y="52.5" width="99" height="99" stroke="#E1E6EE"/>
<rect x="968.5" y="448.5" width="99" height="99" fill="#4680F5" fill-opacity="0.08"/>
<rect x="968.5" y="448.5" width="99" height="99" stroke="#E1E6EE"/>
<rect x="374.5" y="349.5" width="99" height="99" fill="#4680F5" fill-opacity="0.08"/>
<rect x="374.5" y="349.5" width="99" height="99" stroke="#E1E6EE"/>
<rect x="374.5" y="745.5" width="99" height="99" fill="#4680F5" fill-opacity="0.06"/>
<rect x="374.5" y="745.5" width="99" height="99" stroke="#E1E6EE"/>
<rect x="374.5" y="151.5" width="99" height="99" fill="#4680F5" fill-opacity="0.06"/>
<rect x="374.5" y="151.5" width="99" height="99" stroke="#E1E6EE"/>
<rect x="374.5" y="547.5" width="99" height="99" fill="#4680F5" fill-opacity="0.08"/>
<rect x="374.5" y="547.5" width="99" height="99" stroke="#E1E6EE"/>
<rect x="374.5" y="250.5" width="99" height="99" fill="#4680F5" fill-opacity="0.06"/>
<rect x="374.5" y="250.5" width="99" height="99" stroke="#E1E6EE"/>
<rect x="374.5" y="646.5" width="99" height="99" fill="#4680F5" fill-opacity="0.06"/>
<rect x="374.5" y="646.5" width="99" height="99" stroke="#E1E6EE"/>
<rect x="374.5" y="52.5" width="99" height="99" fill="#4680F5" fill-opacity="0.06"/>
<rect x="374.5" y="52.5" width="99" height="99" stroke="#E1E6EE"/>
<rect x="374.5" y="448.5" width="99" height="99" fill="#4680F5" fill-opacity="0.06"/>
<rect x="374.5" y="448.5" width="99" height="99" stroke="#E1E6EE"/>
<rect x="770.5" y="349.5" width="99" height="99" fill="#4680F5" fill-opacity="0.06"/>
<rect x="770.5" y="349.5" width="99" height="99" stroke="#E1E6EE"/>
<rect x="770.5" y="745.5" width="99" height="99" fill="#4680F5" fill-opacity="0.06"/>
<rect x="770.5" y="745.5" width="99" height="99" stroke="#E1E6EE"/>
<rect x="770.5" y="151.5" width="99" height="99" fill="#4680F5" fill-opacity="0.06"/>
<rect x="770.5" y="151.5" width="99" height="99" stroke="#E1E6EE"/>
<rect x="770.5" y="547.5" width="99" height="99" fill="#4680F5" fill-opacity="0.06"/>
<rect x="770.5" y="547.5" width="99" height="99" stroke="#E1E6EE"/>
<rect x="770.5" y="250.5" width="99" height="99" fill="#4680F5" fill-opacity="0.06"/>
<rect x="770.5" y="250.5" width="99" height="99" stroke="#E1E6EE"/>
<rect x="770.5" y="646.5" width="99" height="99" fill="#4680F5" fill-opacity="0.06"/>
<rect x="770.5" y="646.5" width="99" height="99" stroke="#E1E6EE"/>
<rect x="770.5" y="52.5" width="99" height="99" fill="#4680F5" fill-opacity="0.06"/>
<rect x="770.5" y="52.5" width="99" height="99" stroke="#E1E6EE"/>
<rect x="770.5" y="448.5" width="99" height="99" fill="#E2E8F5"/>
<rect x="770.5" y="448.5" width="99" height="99" stroke="#E1E6EE"/>
<rect x="77.5" y="349.5" width="99" height="99" fill="#4680F5" fill-opacity="0.14"/>
<rect x="77.5" y="349.5" width="99" height="99" stroke="#E1E6EE"/>
<rect x="77.5" y="745.5" width="99" height="99" fill="#4680F5" fill-opacity="0.06"/>
<rect x="77.5" y="745.5" width="99" height="99" stroke="#E1E6EE"/>
<rect x="77.5" y="151.5" width="99" height="99" fill="#4680F5" fill-opacity="0.06"/>
<rect x="77.5" y="151.5" width="99" height="99" stroke="#E1E6EE"/>
<rect x="77.5" y="547.5" width="99" height="99" fill="#4680F5" fill-opacity="0.08"/>
<rect x="77.5" y="547.5" width="99" height="99" stroke="#E1E6EE"/>
<rect x="77.5" y="250.5" width="99" height="99" fill="#4680F5" fill-opacity="0.06"/>
<rect x="77.5" y="250.5" width="99" height="99" stroke="#E1E6EE"/>
<rect x="77.5" y="646.5" width="99" height="99" fill="#4680F5" fill-opacity="0.06"/>
<rect x="77.5" y="646.5" width="99" height="99" stroke="#E1E6EE"/>
<rect x="77.5" y="52.5" width="99" height="99" fill="#4680F5" fill-opacity="0.06"/>
<rect x="77.5" y="52.5" width="99" height="99" stroke="#E1E6EE"/>
<rect x="77.5" y="448.5" width="99" height="99" fill="#4680F5" fill-opacity="0.06"/>
<rect x="77.5" y="448.5" width="99" height="99" stroke="#E1E6EE"/>
<rect x="671.5" y="349.5" width="99" height="99" fill="#4680F5" fill-opacity="0.08"/>
<rect x="671.5" y="349.5" width="99" height="99" stroke="#E1E6EE"/>
<rect x="1364.5" y="349.5" width="99" height="99" fill="#4680F5" fill-opacity="0.06"/>
<rect x="1364.5" y="349.5" width="99" height="99" stroke="#E1E6EE"/>
<rect x="671.5" y="745.5" width="99" height="99" fill="#4680F5" fill-opacity="0.06"/>
<rect x="671.5" y="745.5" width="99" height="99" stroke="#E1E6EE"/>
<rect x="1364.5" y="745.5" width="99" height="99" fill="#4680F5" fill-opacity="0.06"/>
<rect x="1364.5" y="745.5" width="99" height="99" stroke="#E1E6EE"/>
<rect x="671.5" y="151.5" width="99" height="99" fill="#4680F5" fill-opacity="0.06"/>
<rect x="671.5" y="151.5" width="99" height="99" stroke="#E1E6EE"/>
<rect x="1364.5" y="151.5" width="99" height="99" fill="#4680F5" fill-opacity="0.06"/>
<rect x="1364.5" y="151.5" width="99" height="99" stroke="#E1E6EE"/>
<rect x="671.5" y="547.5" width="99" height="99" fill="#4680F5" fill-opacity="0.14"/>
<rect x="671.5" y="547.5" width="99" height="99" stroke="#E1E6EE"/>
<rect x="1364.5" y="547.5" width="99" height="99" fill="#4680F5" fill-opacity="0.06"/>
<rect x="1364.5" y="547.5" width="99" height="99" stroke="#E1E6EE"/>
<rect x="671.5" y="250.5" width="99" height="99" fill="#4680F5" fill-opacity="0.06"/>
<rect x="671.5" y="250.5" width="99" height="99" stroke="#E1E6EE"/>
<rect x="1364.5" y="250.5" width="99" height="99" fill="#4680F5" fill-opacity="0.06"/>
<rect x="1364.5" y="250.5" width="99" height="99" stroke="#E1E6EE"/>
<rect x="671.5" y="646.5" width="99" height="99" fill="#4680F5" fill-opacity="0.06"/>
<rect x="671.5" y="646.5" width="99" height="99" stroke="#E1E6EE"/>
<rect x="1364.5" y="646.5" width="99" height="99" fill="#4680F5" fill-opacity="0.06"/>
<rect x="1364.5" y="646.5" width="99" height="99" stroke="#E1E6EE"/>
<rect x="671.5" y="52.5" width="99" height="99" fill="#4680F5" fill-opacity="0.06"/>
<rect x="671.5" y="52.5" width="99" height="99" stroke="#E1E6EE"/>
<rect x="1364.5" y="52.5" width="99" height="99" fill="#4680F5" fill-opacity="0.06"/>
<rect x="1364.5" y="52.5" width="99" height="99" stroke="#E1E6EE"/>
<rect x="671.5" y="448.5" width="99" height="99" fill="#4680F5" fill-opacity="0.06"/>
<rect x="671.5" y="448.5" width="99" height="99" stroke="#E1E6EE"/>
<rect x="1364.5" y="448.5" width="99" height="99" fill="#4680F5" fill-opacity="0.06"/>
<rect x="1364.5" y="448.5" width="99" height="99" stroke="#E1E6EE"/>
<rect x="1067.5" y="349.5" width="99" height="99" fill="#4680F5" fill-opacity="0.06"/>
<rect x="1067.5" y="349.5" width="99" height="99" stroke="#E1E6EE"/>
<rect x="1067.5" y="745.5" width="99" height="99" fill="#4680F5" fill-opacity="0.06"/>
<rect x="1067.5" y="745.5" width="99" height="99" stroke="#E1E6EE"/>
<rect x="1067.5" y="151.5" width="99" height="99" fill="#4680F5" fill-opacity="0.06"/>
<rect x="1067.5" y="151.5" width="99" height="99" stroke="#E1E6EE"/>
<rect x="1067.5" y="547.5" width="99" height="99" fill="#4680F5" fill-opacity="0.14"/>
<rect x="1067.5" y="547.5" width="99" height="99" stroke="#E1E6EE"/>
<rect x="1067.5" y="250.5" width="99" height="99" fill="#4680F5" fill-opacity="0.06"/>
<rect x="1067.5" y="250.5" width="99" height="99" stroke="#E1E6EE"/>
<rect x="1067.5" y="646.5" width="99" height="99" fill="#4680F5" fill-opacity="0.06"/>
<rect x="1067.5" y="646.5" width="99" height="99" stroke="#E1E6EE"/>
<rect x="1067.5" y="52.5" width="99" height="99" fill="#4680F5" fill-opacity="0.06"/>
<rect x="1067.5" y="52.5" width="99" height="99" stroke="#E1E6EE"/>
<rect x="1067.5" y="448.5" width="99" height="99" fill="#4680F5" fill-opacity="0.06"/>
<rect x="1067.5" y="448.5" width="99" height="99" stroke="#E1E6EE"/>
<rect width="2278" height="816" transform="translate(-418 52)" fill="url(#paint0_linear_705_26)"/>
</g>
<defs>
<linearGradient id="paint0_linear_705_26" x1="1139.86" y1="757.431" x2="1139.86" y2="11.9124" gradientUnits="userSpaceOnUse">
<stop stop-color="#F5F5F5"/>
<stop offset="0.134" stop-color="#F5F5F5" stop-opacity="0.9"/>
<stop offset="0.499" stop-color="#F5F5F5" stop-opacity="0"/>
<stop offset="0.849" stop-color="#F5F5F5" stop-opacity="0.9"/>
<stop offset="1" stop-color="#F5F5F5"/>
</linearGradient>
<clipPath id="clip0_705_26">
<rect width="1441" height="920" fill="white"/>
</clipPath>
</defs>
</svg>
