<svg width="60" height="60" viewBox="0 0 60 60" fill="none" xmlns="http://www.w3.org/2000/svg">
<rect width="60" height="60" rx="8" fill="#0D53E0"/>
<path d="M37.1663 28.276L40.8088 24.8485L40.83 24.8273C41.5802 24.077 42.0017 23.0595 42.0017 21.9985C42.0017 20.9375 41.5802 19.92 40.83 19.1698C40.0798 18.4195 39.0622 17.998 38.0013 17.998C36.9403 17.998 35.9227 18.4195 35.1725 19.1698C35.1725 19.1773 35.1588 19.1835 35.1513 19.191L31.7238 22.8335L21.3488 19.0585C21.1699 18.9935 20.9763 18.9808 20.7905 19.022C20.6047 19.0632 20.4346 19.1565 20.3 19.291L17.3 22.291C17.1955 22.3956 17.1154 22.5221 17.0657 22.6614C17.0159 22.8007 16.9977 22.9493 17.0123 23.0965C17.0269 23.2436 17.0739 23.3857 17.15 23.5125C17.2262 23.6393 17.3295 23.7477 17.4525 23.8298L25.4388 29.1535L23.5863 30.9998H21C20.7351 30.9999 20.4811 31.1051 20.2938 31.2923L17.2938 34.2923C17.1768 34.409 17.0905 34.5529 17.0427 34.7111C16.9949 34.8692 16.9871 35.0368 17.0199 35.1988C17.0527 35.3608 17.1252 35.5121 17.2308 35.6392C17.3364 35.7663 17.4718 35.8653 17.625 35.9273L22.2275 37.7685L24.065 42.3623L24.0725 42.3823C24.1361 42.5361 24.2371 42.6717 24.3663 42.7767C24.4955 42.8816 24.6489 42.9527 24.8125 42.9833C24.9762 43.014 25.1449 43.0033 25.3034 42.9523C25.4618 42.9012 25.605 42.8114 25.72 42.691L28.7038 39.706C28.7971 39.6135 28.8713 39.5035 28.9222 39.3824C28.973 39.2612 28.9995 39.1312 29 38.9998V36.4135L30.845 34.5685L36.1688 42.5548C36.2508 42.6778 36.3592 42.7811 36.486 42.8572C36.6128 42.9334 36.7549 42.9804 36.9021 42.995C37.0492 43.0096 37.1978 42.9913 37.3371 42.9416C37.4764 42.8918 37.6029 42.8118 37.7075 42.7073L40.7075 39.7073C40.842 39.5727 40.9354 39.4025 40.9765 39.2167C41.0177 39.031 41.005 38.8373 40.94 38.6585L37.1663 28.276ZM37.1575 40.4298L31.8338 32.4448C31.7521 32.3208 31.644 32.2165 31.517 32.1395C31.3901 32.0626 31.2477 32.0148 31.1 31.9998C31.0663 31.9998 31.0338 31.9998 31.0013 31.9998C30.8698 31.9998 30.7397 32.0258 30.6183 32.0762C30.4969 32.1266 30.3866 32.2004 30.2938 32.2935L27.2938 35.2935C27.1061 35.4807 27.0005 35.7347 27 35.9998V38.586L25.3663 40.2198L23.9288 36.6248C23.8785 36.4999 23.8035 36.3866 23.7083 36.2914C23.6132 36.1963 23.4998 36.1213 23.375 36.071L19.7825 34.6335L21.415 32.9998H24C24.1314 32.9999 24.2615 32.9741 24.3829 32.9239C24.5043 32.8737 24.6146 32.8001 24.7075 32.7073L27.7075 29.7073C27.8123 29.6026 27.8925 29.476 27.9424 29.3366C27.9923 29.1972 28.0106 29.0485 27.996 28.9011C27.9814 28.7538 27.9343 28.6115 27.858 28.4846C27.7818 28.3577 27.6783 28.2493 27.555 28.1673L19.57 22.8423L21.2575 21.156L31.66 24.9385C31.8433 25.0058 32.0423 25.0181 32.2324 24.9736C32.4226 24.9292 32.5955 24.8301 32.73 24.6885L36.5975 20.5748C36.9745 20.2088 37.4803 20.0059 38.0056 20.0098C38.531 20.0138 39.0337 20.2243 39.4051 20.5959C39.7765 20.9675 39.9868 21.4703 39.9905 21.9956C39.9943 22.521 39.7911 23.0267 39.425 23.4035L35.3163 27.2698C35.1747 27.4042 35.0756 27.5772 35.0311 27.7673C34.9867 27.9575 34.9989 28.1565 35.0663 28.3398L38.8488 38.7423L37.1575 40.4298Z" fill="white"/>
</svg>
