<svg width="60" height="60" viewBox="0 0 60 60" fill="none" xmlns="http://www.w3.org/2000/svg">
<rect width="60" height="60" rx="8" fill="#0D53E0"/>
<path d="M45.7874 27.4888L42.5974 21.1063C42.4799 20.8714 42.3173 20.6619 42.1188 20.4898C41.9203 20.3178 41.6899 20.1865 41.4407 20.1035C41.1915 20.0205 40.9284 19.9874 40.6664 20.0061C40.4043 20.0248 40.1486 20.095 39.9137 20.2125L36.8049 21.7663L30.2562 20.0338C30.0882 19.99 29.9117 19.99 29.7437 20.0338L23.1949 21.7663L20.0862 20.2125C19.8513 20.095 19.5955 20.0248 19.3335 20.0061C19.0715 19.9874 18.8084 20.0205 18.5592 20.1035C18.31 20.1865 18.0796 20.3178 17.8811 20.4898C17.6826 20.6619 17.52 20.8714 17.4024 21.1063L14.2124 27.4875C14.0949 27.7224 14.0248 27.9782 14.0061 28.2402C13.9873 28.5022 14.0204 28.7653 14.1034 29.0145C14.1864 29.2637 14.3177 29.4942 14.4898 29.6926C14.6618 29.8911 14.8713 30.0538 15.1062 30.1713L18.4812 31.86L25.4174 36.8138C25.5197 36.8865 25.6345 36.9395 25.7562 36.97L33.7562 38.97C33.9237 39.012 34.0993 39.0099 34.2658 38.9639C34.4323 38.9179 34.584 38.8296 34.7062 38.7075L41.5899 31.8225L44.8924 30.1713C45.3666 29.9339 45.727 29.5181 45.8946 29.015C46.0622 28.512 46.0232 27.963 45.7862 27.4888H45.7874ZM38.9262 31.66L34.6249 28.215C34.4323 28.0607 34.1893 27.9831 33.9428 27.9972C33.6964 28.0113 33.4638 28.116 33.2899 28.2913C31.0637 30.5338 28.5824 30.25 26.9999 29.25L32.4049 24H36.3812L39.7824 30.8013L38.9262 31.66ZM19.1912 22L21.7499 23.2775L18.5537 29.6588L15.9999 28.3825L19.1912 22ZM33.6912 36.8913L26.4274 35.0763L20.2774 30.6838L23.7774 23.6838L29.9999 22.035L31.2249 22.3588L25.5999 27.8188L25.5899 27.83C25.3782 28.0418 25.2167 28.2984 25.1174 28.5808C25.0181 28.8633 24.9834 29.1645 25.0161 29.4622C25.0487 29.7599 25.1478 30.0464 25.3059 30.3007C25.4641 30.5549 25.6774 30.7704 25.9299 30.9313C28.4999 32.5725 31.6012 32.3063 34.0437 30.3063L37.4999 33.0825L33.6912 36.8913ZM41.4412 29.6575L38.2512 23.2825L40.8087 22L43.9999 28.3825L41.4412 29.6575ZM30.4724 41.2413C30.4184 41.4574 30.2938 41.6493 30.1183 41.7865C29.9428 41.9238 29.7265 41.9985 29.5037 41.9988C29.4215 41.9987 29.3397 41.9886 29.2599 41.9688L24.0512 40.6663C23.9294 40.6362 23.8144 40.5832 23.7124 40.51L20.4187 38.1575C20.2162 37.9985 20.0828 37.7675 20.0463 37.5126C20.0099 37.2577 20.0731 36.9986 20.2229 36.7892C20.3728 36.5797 20.5976 36.4362 20.8506 36.3884C21.1036 36.3406 21.3653 36.3922 21.5812 36.5325L24.7199 38.775L29.7499 40.03C30.0072 40.0944 30.2283 40.2583 30.3648 40.4856C30.5012 40.713 30.5417 40.9853 30.4774 41.2425L30.4724 41.2413Z" fill="white"/>
</svg>
