<svg width="60" height="60" viewBox="0 0 60 60" fill="none" xmlns="http://www.w3.org/2000/svg">
<rect width="60" height="60" rx="8" fill="#0D53E0"/>
<path d="M28 24C28 23.6044 28.1173 23.2178 28.3371 22.8889C28.5568 22.56 28.8692 22.3036 29.2346 22.1522C29.6001 22.0009 30.0022 21.9613 30.3902 22.0384C30.7781 22.1156 31.1345 22.3061 31.4142 22.5858C31.6939 22.8655 31.8844 23.2219 31.9616 23.6098C32.0387 23.9978 31.9991 24.3999 31.8478 24.7654C31.6964 25.1308 31.44 25.4432 31.1111 25.6629C30.7822 25.8827 30.3956 26 30 26C29.4696 26 28.9609 25.7893 28.5858 25.4142C28.2107 25.0391 28 24.5304 28 24ZM22 24C22 21.8783 22.8429 19.8434 24.3431 18.3431C25.8434 16.8429 27.8783 16 30 16C32.1217 16 34.1566 16.8429 35.6569 18.3431C37.1571 19.8434 38 21.8783 38 24C38 31.4937 30.8025 35.6925 30.5 35.8687C30.3489 35.9551 30.1778 36.0006 30.0037 36.0006C29.8297 36.0006 29.6586 35.9551 29.5075 35.8687C29.1975 35.6925 22 31.5 22 24ZM24 24C24 29.275 28.48 32.7763 30 33.8125C31.5188 32.7775 36 29.275 36 24C36 22.4087 35.3679 20.8826 34.2426 19.7574C33.1174 18.6321 31.5913 18 30 18C28.4087 18 26.8826 18.6321 25.7574 19.7574C24.6321 20.8826 24 22.4087 24 24ZM39.3463 32.4538C39.1001 32.3724 38.832 32.3899 38.5985 32.5024C38.365 32.6149 38.1843 32.8137 38.0945 33.0568C38.0047 33.3 38.0128 33.5685 38.1171 33.8058C38.2215 34.0431 38.4139 34.2306 38.6537 34.3288C40.7175 35.0925 42 36.115 42 37C42 38.67 37.435 41 30 41C22.565 41 18 38.67 18 37C18 36.115 19.2825 35.0925 21.3463 34.33C21.5861 34.2318 21.7785 34.0443 21.8829 33.807C21.9872 33.5697 21.9953 33.3012 21.9055 33.0581C21.8157 32.8149 21.635 32.6161 21.4015 32.5036C21.168 32.3911 20.8999 32.3737 20.6537 32.455C17.6525 33.5613 16 35.1763 16 37C16 40.8975 23.2137 43 30 43C36.7863 43 44 40.8975 44 37C44 35.1763 42.3475 33.5613 39.3463 32.4538Z" fill="white"/>
</svg>
