<svg width="60" height="60" viewBox="0 0 60 60" fill="none" xmlns="http://www.w3.org/2000/svg">
<rect width="60" height="60" rx="8" fill="#0D53E0"/>
<path d="M42.8648 40.5005C40.9611 37.2092 38.0273 34.8492 34.6036 33.7305C36.2971 32.7223 37.6129 31.1861 38.3489 29.3577C39.0848 27.5294 39.2002 25.51 38.6774 23.6097C38.1546 21.7094 37.0224 20.0332 35.4548 18.8386C33.8872 17.644 31.9708 16.9971 29.9999 16.9971C28.0289 16.9971 26.1125 17.644 24.5449 18.8386C22.9773 20.0332 21.8451 21.7094 21.3223 23.6097C20.7995 25.51 20.9149 27.5294 21.6508 29.3577C22.3868 31.1861 23.7026 32.7223 25.3961 33.7305C21.9724 34.848 19.0386 37.208 17.1349 40.5005C17.065 40.6143 17.0187 40.741 16.9987 40.873C16.9786 41.005 16.9852 41.1397 17.018 41.2692C17.0508 41.3986 17.1093 41.5201 17.1898 41.6266C17.2704 41.7331 17.3715 41.8224 17.4871 41.8892C17.6028 41.956 17.7306 41.9989 17.8631 42.0155C17.9956 42.0321 18.1301 42.022 18.2586 41.9858C18.3872 41.9495 18.5071 41.8879 18.6115 41.8046C18.7158 41.7212 18.8024 41.6178 18.8661 41.5005C21.2211 37.4305 25.3836 35.0005 29.9999 35.0005C34.6161 35.0005 38.7786 37.4305 41.1336 41.5005C41.1973 41.6178 41.2839 41.7212 41.3882 41.8046C41.4926 41.8879 41.6125 41.9495 41.7411 41.9858C41.8696 42.022 42.0041 42.0321 42.1366 42.0155C42.2691 41.9989 42.3969 41.956 42.5126 41.8892C42.6282 41.8224 42.7293 41.7331 42.8099 41.6266C42.8904 41.5201 42.9489 41.3986 42.9817 41.2692C43.0145 41.1397 43.0211 41.005 43.001 40.873C42.981 40.741 42.9347 40.6143 42.8648 40.5005ZM22.9999 26.0005C22.9999 24.616 23.4104 23.2626 24.1796 22.1115C24.9487 20.9603 26.042 20.0631 27.3211 19.5333C28.6001 19.0035 30.0076 18.8649 31.3655 19.135C32.7234 19.4051 33.9706 20.0718 34.9496 21.0507C35.9286 22.0297 36.5953 23.277 36.8653 24.6348C37.1354 25.9927 36.9968 27.4002 36.467 28.6793C35.9372 29.9583 35.04 31.0516 33.8888 31.8208C32.7377 32.5899 31.3843 33.0005 29.9999 33.0005C28.1439 32.9985 26.3646 32.2604 25.0523 30.948C23.74 29.6357 23.0018 27.8564 22.9999 26.0005Z" fill="white"/>
</svg>
