<svg width="33" height="32" viewBox="0 0 33 32" fill="none" xmlns="http://www.w3.org/2000/svg">
<path d="M27.4575 10.2925L20.4575 3.2925C20.3646 3.19967 20.2542 3.12605 20.1329 3.07586C20.0115 3.02568 19.8814 2.9999 19.75 3H7.75C7.21957 3 6.71086 3.21071 6.33579 3.58579C5.96071 3.96086 5.75 4.46957 5.75 5V27C5.75 27.5304 5.96071 28.0391 6.33579 28.4142C6.71086 28.7893 7.21957 29 7.75 29H25.75C26.2804 29 26.7891 28.7893 27.1642 28.4142C27.5393 28.0391 27.75 27.5304 27.75 27V11C27.7501 10.8686 27.7243 10.7385 27.6741 10.6172C27.6239 10.4958 27.5503 10.3854 27.4575 10.2925ZM20.75 6.41375L24.3363 10H20.75V6.41375ZM25.75 27H7.75V5H18.75V11C18.75 11.2652 18.8554 11.5196 19.0429 11.7071C19.2304 11.8946 19.4848 12 19.75 12H25.75V27ZM20.4575 17.2925C20.5504 17.3854 20.6241 17.4957 20.6744 17.6171C20.7247 17.7385 20.7506 17.8686 20.7506 18C20.7506 18.1314 20.7247 18.2615 20.6744 18.3829C20.6241 18.5043 20.5504 18.6146 20.4575 18.7075C20.3646 18.8004 20.2543 18.8741 20.1329 18.9244C20.0115 18.9747 19.8814 19.0006 19.75 19.0006C19.6186 19.0006 19.4885 18.9747 19.3671 18.9244C19.2457 18.8741 19.1354 18.8004 19.0425 18.7075L17.75 17.4137V23C17.75 23.2652 17.6446 23.5196 17.4571 23.7071C17.2696 23.8946 17.0152 24 16.75 24C16.4848 24 16.2304 23.8946 16.0429 23.7071C15.8554 23.5196 15.75 23.2652 15.75 23V17.4137L14.4575 18.7075C14.3646 18.8004 14.2543 18.8741 14.1329 18.9244C14.0115 18.9747 13.8814 19.0006 13.75 19.0006C13.6186 19.0006 13.4885 18.9747 13.3671 18.9244C13.2457 18.8741 13.1354 18.8004 13.0425 18.7075C12.9496 18.6146 12.8759 18.5043 12.8256 18.3829C12.7753 18.2615 12.7494 18.1314 12.7494 18C12.7494 17.8686 12.7753 17.7385 12.8256 17.6171C12.8759 17.4957 12.9496 17.3854 13.0425 17.2925L16.0425 14.2925C16.1354 14.1995 16.2457 14.1258 16.3671 14.0754C16.4885 14.0251 16.6186 13.9992 16.75 13.9992C16.8814 13.9992 17.0115 14.0251 17.1329 14.0754C17.2543 14.1258 17.3646 14.1995 17.4575 14.2925L20.4575 17.2925Z" fill="black"/>
</svg>
