<svg width="48" height="37" viewBox="0 0 48 37" fill="none" xmlns="http://www.w3.org/2000/svg">
<rect x="11" y="7" width="24" height="24" rx="12" stroke="#F7F7F7" stroke-width="12"/>
<path d="M30.0146 18.3499L30.381 19.7171C30.4134 19.838 30.3964 19.9668 30.3338 20.0751C30.2713 20.1835 30.1682 20.2626 30.0473 20.295L19.8542 23.0262C19.3641 23.1599 18.844 23.1309 18.3719 22.9434C17.8998 22.756 17.5014 22.4203 17.2366 21.9869L15.7193 19.5304C15.642 19.4053 15.595 19.2639 15.5821 19.1174C15.5691 18.971 15.5906 18.8235 15.6448 18.6868C15.699 18.5501 15.7844 18.4279 15.8941 18.3301C16.0039 18.2322 16.135 18.1614 16.277 18.1232L16.7327 18.0011C16.8535 17.9688 16.9821 17.9857 17.0903 18.0482L18.6554 18.9513L19.9366 18.608L19.0127 17.2107C18.9303 17.0858 18.8787 16.9432 18.8623 16.7946C18.8458 16.6459 18.8649 16.4954 18.918 16.3556C18.9712 16.2158 19.0568 16.0906 19.1678 15.9903C19.2788 15.8901 19.4121 15.8177 19.5566 15.7791L20.0123 15.657C20.0722 15.6409 20.1346 15.6367 20.1961 15.6448C20.2575 15.6528 20.3168 15.6729 20.3705 15.7039L23.6686 17.608L27.1254 16.6818C27.7297 16.5198 28.3736 16.6046 28.9155 16.9175C29.4573 17.2303 29.8527 17.7456 30.0146 18.3499ZM29.1031 18.5941C29.006 18.2315 28.7688 17.9224 28.4436 17.7347C28.1185 17.547 27.7322 17.4961 27.3696 17.5933L23.7237 18.5702C23.6029 18.6025 23.4743 18.5855 23.3661 18.5231L20.068 16.619L19.8008 16.6906L21.0843 18.6345C21.1254 18.6968 21.1512 18.7681 21.1595 18.8423C21.1677 18.9166 21.1582 18.9917 21.1318 19.0616C21.1053 19.1315 21.0626 19.194 21.0072 19.2442C20.9518 19.2943 20.8853 19.3306 20.8132 19.35L18.7105 19.9134C18.6507 19.9295 18.5882 19.9337 18.5268 19.9256C18.4653 19.9176 18.4061 19.8975 18.3524 19.8665L16.7884 18.9631L16.5212 19.0347L18.0387 21.4917C18.1977 21.7518 18.4369 21.9532 18.7203 22.0656C19.0037 22.1779 19.3159 22.1952 19.6099 22.1148L29.3474 19.5056L29.1031 18.5941Z" fill="white"/>
<rect x="11" y="7" width="24" height="24" rx="12" fill="#1F14F0"/>
<rect x="11" y="7" width="24" height="24" rx="12" stroke="#EBEBEB" stroke-width="4"/>
<path d="M30.0146 18.3499L30.381 19.7171C30.4134 19.838 30.3964 19.9668 30.3338 20.0751C30.2713 20.1835 30.1682 20.2626 30.0473 20.295L19.8542 23.0262C19.3641 23.1599 18.844 23.1309 18.3719 22.9434C17.8998 22.756 17.5014 22.4203 17.2366 21.9869L15.7193 19.5304C15.642 19.4053 15.595 19.2639 15.5821 19.1174C15.5691 18.971 15.5906 18.8235 15.6448 18.6868C15.699 18.5501 15.7844 18.4279 15.8941 18.3301C16.0039 18.2322 16.135 18.1614 16.277 18.1232L16.7327 18.0011C16.8535 17.9688 16.9821 17.9857 17.0903 18.0482L18.6554 18.9513L19.9366 18.608L19.0127 17.2107C18.9303 17.0858 18.8787 16.9432 18.8623 16.7946C18.8458 16.6459 18.8649 16.4954 18.918 16.3556C18.9712 16.2158 19.0568 16.0906 19.1678 15.9903C19.2788 15.8901 19.4121 15.8177 19.5566 15.7791L20.0123 15.657C20.0722 15.6409 20.1346 15.6367 20.1961 15.6448C20.2575 15.6528 20.3168 15.6729 20.3705 15.7039L23.6686 17.608L27.1254 16.6818C27.7297 16.5198 28.3736 16.6046 28.9155 16.9175C29.4573 17.2303 29.8527 17.7456 30.0146 18.3499ZM29.1031 18.5941C29.006 18.2315 28.7688 17.9224 28.4436 17.7347C28.1185 17.547 27.7322 17.4961 27.3696 17.5933L23.7237 18.5702C23.6029 18.6025 23.4743 18.5855 23.3661 18.5231L20.068 16.619L19.8008 16.6906L21.0843 18.6345C21.1254 18.6968 21.1512 18.7681 21.1595 18.8423C21.1677 18.9166 21.1582 18.9917 21.1318 19.0616C21.1053 19.1315 21.0626 19.194 21.0072 19.2442C20.9518 19.2943 20.8853 19.3306 20.8132 19.35L18.7105 19.9134C18.6507 19.9295 18.5882 19.9337 18.5268 19.9256C18.4653 19.9176 18.4061 19.8975 18.3524 19.8665L16.7884 18.9631L16.5212 19.0347L18.0387 21.4917C18.1977 21.7518 18.4369 21.9532 18.7203 22.0656C19.0037 22.1779 19.3159 22.1952 19.6099 22.1148L29.3474 19.5056L29.1031 18.5941Z" fill="white"/>
</svg>
