<svg width="14" height="19" viewBox="0 0 14 19" fill="none" xmlns="http://www.w3.org/2000/svg">
<path d="M13.25 7.00005C13.25 5.79056 12.899 4.60707 12.2397 3.59309C11.5804 2.57912 10.641 1.77823 9.53555 1.28755C8.43007 0.79688 7.20597 0.637506 6.0117 0.828759C4.81743 1.02001 3.70432 1.55368 2.80734 2.36503C1.91037 3.17638 1.26808 4.23056 0.958378 5.39972C0.648672 6.56888 0.684852 7.80278 1.06253 8.95178C1.44021 10.1008 2.14316 11.1155 3.08613 11.8729C4.0291 12.6303 5.17158 13.0978 6.375 13.2188V15.125H3.875C3.70924 15.125 3.55027 15.1909 3.43306 15.3081C3.31585 15.4253 3.25 15.5843 3.25 15.75C3.25 15.9158 3.31585 16.0748 3.43306 16.192C3.55027 16.3092 3.70924 16.375 3.875 16.375H6.375V18.25C6.375 18.4158 6.44085 18.5748 6.55806 18.692C6.67527 18.8092 6.83424 18.875 7 18.875C7.16576 18.875 7.32473 18.8092 7.44194 18.692C7.55915 18.5748 7.625 18.4158 7.625 18.25V16.375H10.125C10.2908 16.375 10.4497 16.3092 10.5669 16.192C10.6842 16.0748 10.75 15.9158 10.75 15.75C10.75 15.5843 10.6842 15.4253 10.5669 15.3081C10.4497 15.1909 10.2908 15.125 10.125 15.125H7.625V13.2188C9.1659 13.062 10.5939 12.3394 11.6329 11.1907C12.6719 10.042 13.2481 8.54891 13.25 7.00005ZM2 7.00005C2 6.01114 2.29324 5.04444 2.84265 4.2222C3.39206 3.39995 4.17295 2.75909 5.08658 2.38065C6.00021 2.00221 7.00555 1.90319 7.97545 2.09612C8.94536 2.28905 9.83627 2.76525 10.5355 3.46451C11.2348 4.16378 11.711 5.05469 11.9039 6.0246C12.0969 6.9945 11.9978 7.99983 11.6194 8.91346C11.241 9.82709 10.6001 10.608 9.77785 11.1574C8.9556 11.7068 7.98891 12 7 12C5.67436 11.9986 4.40343 11.4714 3.46607 10.534C2.5287 9.59661 2.00145 8.32569 2 7.00005Z" fill="#606060"/>
</svg>
