<svg width="20" height="21" viewBox="0 0 20 21" fill="none" xmlns="http://www.w3.org/2000/svg">
<path d="M19.8672 8.93048L17.8735 4.94142C17.8 4.7946 17.6984 4.66368 17.5743 4.55615C17.4503 4.44861 17.3063 4.36657 17.1505 4.31469C16.9947 4.26282 16.8303 4.24214 16.6665 4.25383C16.5028 4.26552 16.3429 4.30935 16.1961 4.38283L14.2532 5.35392L10.1602 4.27111C10.0552 4.24378 9.94489 4.24378 9.83987 4.27111L5.7469 5.35392L3.80393 4.38283C3.65712 4.30935 3.49728 4.26552 3.33352 4.25383C3.16977 4.24214 3.00532 4.26282 2.84956 4.31469C2.6938 4.36657 2.54978 4.44861 2.42574 4.55615C2.30169 4.66368 2.20004 4.7946 2.12659 4.94142L0.132839 8.9297C0.0593675 9.07651 0.0155349 9.23636 0.00384464 9.40011C-0.0078456 9.56386 0.0128355 9.72832 0.0647069 9.88407C0.116578 10.0398 0.198624 10.1839 0.306159 10.3079C0.413693 10.4319 0.54461 10.5336 0.691433 10.607L2.80081 11.6625L7.13596 14.7586C7.19984 14.8041 7.27165 14.8372 7.34768 14.8563L12.3477 16.1063C12.4524 16.1325 12.5621 16.1312 12.6662 16.1025C12.7702 16.0737 12.8651 16.0185 12.9414 15.9422L17.2438 11.6391L19.3078 10.607C19.6042 10.4587 19.8295 10.1988 19.9342 9.8844C20.0389 9.57001 20.0146 9.2269 19.8664 8.93048H19.8672ZM15.5789 11.5375L12.8907 9.38439C12.7702 9.28794 12.6184 9.23945 12.4643 9.24825C12.3103 9.25705 12.1649 9.32251 12.0563 9.43204C10.6649 10.8336 9.11409 10.6563 8.12503 10.0313L11.5032 6.75001H13.9883L16.1141 11.0008L15.5789 11.5375ZM3.24456 5.50001L4.84378 6.29845L2.84612 10.2867L1.25003 9.48908L3.24456 5.50001ZM12.3071 14.807L7.76721 13.6727L3.92346 10.9274L6.11096 6.55236L10 5.52189L10.7657 5.72423L7.25003 9.13673L7.24378 9.14376C7.11144 9.2761 7.0105 9.43647 6.94843 9.61303C6.88635 9.78959 6.86471 9.97783 6.8851 10.1639C6.9055 10.3499 6.96741 10.529 7.06627 10.6879C7.16513 10.8468 7.29841 10.9815 7.45628 11.082C9.06253 12.1078 11.0008 11.9414 12.5274 10.6914L14.6875 12.4266L12.3071 14.807ZM17.1508 10.286L15.1571 6.30158L16.7555 5.50001L18.75 9.48908L17.1508 10.286ZM10.2953 17.5258C10.2616 17.6609 10.1837 17.7808 10.074 17.8666C9.96429 17.9524 9.82911 17.999 9.68987 17.9992C9.63852 17.9992 9.58736 17.9929 9.53753 17.9805L6.28206 17.1664C6.20592 17.1476 6.13406 17.1145 6.07034 17.0688L4.01175 15.5985C3.88517 15.4991 3.80181 15.3547 3.77901 15.1954C3.75622 15.0361 3.79576 14.8741 3.8894 14.7432C3.98303 14.6123 4.12354 14.5226 4.28168 14.4927C4.43981 14.4629 4.60337 14.4951 4.73831 14.5828L6.70003 15.9844L9.84378 16.7688C10.0046 16.809 10.1428 16.9114 10.228 17.0535C10.3133 17.1956 10.3386 17.3658 10.2985 17.5266L10.2953 17.5258Z" fill="#606060"/>
</svg>
