<svg width="20" height="21" viewBox="0 0 20 21" fill="none" xmlns="http://www.w3.org/2000/svg">
<path d="M11.875 6.75C12.3694 6.75 12.8528 6.60338 13.2639 6.32868C13.675 6.05397 13.9955 5.66352 14.1847 5.20671C14.3739 4.74989 14.4234 4.24723 14.3269 3.76228C14.2305 3.27732 13.9924 2.83187 13.6427 2.48223C13.2931 2.1326 12.8477 1.8945 12.3627 1.79804C11.8778 1.70157 11.3751 1.75108 10.9183 1.9403C10.4615 2.12952 10.071 2.44995 9.79631 2.86108C9.5216 3.2722 9.37498 3.75555 9.37498 4.25C9.37498 4.91304 9.63837 5.54893 10.1072 6.01777C10.5761 6.48661 11.2119 6.75 11.875 6.75ZM11.875 3C12.1222 3 12.3639 3.07331 12.5694 3.21066C12.775 3.34802 12.9352 3.54324 13.0298 3.77165C13.1244 4.00005 13.1492 4.25139 13.101 4.49386C13.0527 4.73634 12.9337 4.95907 12.7589 5.13388C12.584 5.3087 12.3613 5.42775 12.1188 5.47598C11.8764 5.52421 11.625 5.49946 11.3966 5.40485C11.1682 5.31024 10.973 5.15003 10.8356 4.94446C10.6983 4.7389 10.625 4.49723 10.625 4.25C10.625 3.91848 10.7567 3.60054 10.9911 3.36612C11.2255 3.1317 11.5435 3 11.875 3ZM16.875 11.75C16.875 11.9158 16.8091 12.0747 16.6919 12.1919C16.5747 12.3092 16.4157 12.375 16.25 12.375C13.4914 12.375 12.1133 10.9836 11.0062 9.86563C10.7922 9.64922 10.5875 9.44375 10.3812 9.25313L9.33201 11.6656L12.2383 13.7414C12.3192 13.7992 12.3852 13.8755 12.4307 13.964C12.4762 14.0525 12.5 14.1505 12.5 14.25V18.625C12.5 18.7908 12.4341 18.9497 12.3169 19.0669C12.1997 19.1842 12.0407 19.25 11.875 19.25C11.7092 19.25 11.5502 19.1842 11.433 19.0669C11.3158 18.9497 11.25 18.7908 11.25 18.625V14.5719L8.82264 12.8375L6.19842 18.8742C6.14985 18.9859 6.0697 19.081 5.96782 19.1478C5.86595 19.2145 5.74678 19.2501 5.62498 19.25C5.53916 19.2502 5.45425 19.2324 5.37576 19.1977C5.22383 19.1316 5.10433 19.0079 5.04354 18.8538C4.98274 18.6997 4.98562 18.5278 5.05154 18.3758L9.27654 8.65938C8.5492 8.53047 7.64217 8.75313 6.5656 9.32969C5.70701 9.80329 4.90566 10.374 4.17732 11.0305C4.05575 11.1394 3.89641 11.1964 3.73335 11.1893C3.57029 11.1823 3.41645 11.1118 3.30472 10.9928C3.19299 10.8738 3.13223 10.7158 3.13544 10.5527C3.13864 10.3895 3.20554 10.234 3.32185 10.1195C3.51717 9.93594 8.14139 5.64844 11.0344 8.16016C11.3336 8.41953 11.6187 8.70703 11.8937 8.98594C12.9836 10.0859 14.0125 11.125 16.25 11.125C16.4157 11.125 16.5747 11.1908 16.6919 11.3081C16.8091 11.4253 16.875 11.5842 16.875 11.75Z" fill="#606060"/>
</svg>
