<svg xmlns="http://www.w3.org/2000/svg" xmlns:xlink="http://www.w3.org/1999/xlink" viewBox="0 0 455.44 306.35"><defs><style>.cls-1{fill:#96b7c6;}.cls-2{fill:#fdfcfc;}.cls-3{fill:url(#linear-gradient);}.cls-4{fill:url(#linear-gradient-2);}</style><linearGradient id="linear-gradient" x1="7.54" y1="256.87" x2="215.65" y2="48.75" gradientUnits="userSpaceOnUse"><stop offset="0" stop-color="#1e415a"/><stop offset="0.45" stop-color="#236c96"/><stop offset="1" stop-color="#267099"/></linearGradient><linearGradient id="linear-gradient-2" x1="7.54" y1="256.87" x2="215.66" y2="48.76" xlink:href="#linear-gradient"/></defs><g id="Layer_1" data-name="Layer 1"><rect class="cls-1" x="-27.57" y="-18.54" width="510.58" height="343.44"/><path class="cls-2" d="M223,248.09v-57h28.07q8.42,0,12.79,4.16t4.38,11.38a11.38,11.38,0,0,1-2,6.57,10.93,10.93,0,0,1-5,4.07,17,17,0,0,1,3.39,1.76,10.54,10.54,0,0,1,2.74,2.75,13.87,13.87,0,0,1,1.85,3.95,18.63,18.63,0,0,1,.69,5.37q0,7.82-5.24,12.4t-16.05,4.59ZM234.5,201v12.37h15q7.22,0,7.22-6.19,0-3.25-1.85-4.72t-6-1.46Zm15.11,37.43a8.73,8.73,0,0,0,6.44-2.31,8,8,0,0,0,2.32-5.84q0-3.78-2.28-5.5a10.29,10.29,0,0,0-6.31-1.71H234.5v15.36Z"/><path class="cls-2" d="M293,249.21a24.29,24.29,0,0,1-9.19-1.63A19.31,19.31,0,0,1,277,243a19.53,19.53,0,0,1-4.25-7,26.9,26.9,0,0,1-1.46-9,26.4,26.4,0,0,1,1.51-9.1,19,19,0,0,1,11.16-11.55,24.31,24.31,0,0,1,9.06-1.59,23.71,23.71,0,0,1,8.92,1.59,19.32,19.32,0,0,1,6.74,4.46,19.62,19.62,0,0,1,4.3,7,26.72,26.72,0,0,1,1.5,9.19,26.35,26.35,0,0,1-1.5,9.14,20.16,20.16,0,0,1-4.3,7,19,19,0,0,1-6.78,4.5A23.8,23.8,0,0,1,293,249.21Zm0-9.36q10.21,0,10.21-12.87T293,214.18q-10.23,0-10.22,12.8T293,239.85Z"/><path class="cls-2" d="M344.48,248.09a16.37,16.37,0,0,1-.69-3.77,13.81,13.81,0,0,1-5.24,3.56,19.8,19.8,0,0,1-7.55,1.33q-7.31,0-10.69-3.22a11,11,0,0,1-3.39-8.37,15.22,15.22,0,0,1,1.46-7.25,10.85,10.85,0,0,1,4-4.25,19.52,19.52,0,0,1,6.14-2.28c2.37-.48,5-.93,7.77-1.33s4.69-.93,5.67-1.59a3.92,3.92,0,0,0-.48-6.44,10.06,10.06,0,0,0-5.19-1.15c-2.58,0-4.42.57-5.54,1.71a8.05,8.05,0,0,0-2.1,4.55H318.29a19.5,19.5,0,0,1,1.07-6,11.56,11.56,0,0,1,3.18-4.72,14.86,14.86,0,0,1,5.71-3.05,30,30,0,0,1,8.59-1.07,27.72,27.72,0,0,1,8.45,1.12,13.46,13.46,0,0,1,5.58,3.22,12.25,12.25,0,0,1,3.05,5.23,24.52,24.52,0,0,1,.94,7.08v26.7Zm-.78-20.69a6,6,0,0,1-2.49,1.38,46.2,46.2,0,0,1-4.72,1.11c-3.2.63-5.41,1.44-6.61,2.41a5.09,5.09,0,0,0-1.8,4.2q0,4.73,5.41,4.73a10.88,10.88,0,0,0,4-.73,10.07,10.07,0,0,0,3.18-2,9.89,9.89,0,0,0,2.14-2.92,7.92,7.92,0,0,0,.82-3.56Z"/><path class="cls-2" d="M359.33,248.09V205.86H369.8v5.06a13.82,13.82,0,0,1,2.88-3.35,12.42,12.42,0,0,1,3.09-1.84,12,12,0,0,1,3.22-.82,33,33,0,0,1,3.34-.17h1.46v11.42a19,19,0,0,0-3.09-.26q-10.21,0-10.21,10.22v22Z"/><path class="cls-2" d="M414.53,248.09l-.09-5.15q-3.85,6.27-11.76,6.27a17.39,17.39,0,0,1-7.38-1.54,16.09,16.09,0,0,1-5.75-4.47,21.36,21.36,0,0,1-3.78-7.12,30.54,30.54,0,0,1-1.37-9.53,31.56,31.56,0,0,1,1.15-8.8,20.76,20.76,0,0,1,3.4-6.91,15.2,15.2,0,0,1,5.45-4.51,16.33,16.33,0,0,1,7.34-1.59,14.67,14.67,0,0,1,12.53,6.61V190.4h11v57.69Zm-9.27-8a8.35,8.35,0,0,0,6.74-3.35,13.51,13.51,0,0,0,2.7-8.75q0-13.74-9.36-13.74-9.61,0-9.61,13a15,15,0,0,0,2.66,9.23A8.21,8.21,0,0,0,405.26,240.11Z"/><path class="cls-2" d="M250.38,183.81q-13.22,0-20.3-7.73T223,153.85a43.39,43.39,0,0,1,1.8-13,26.42,26.42,0,0,1,5.32-9.74,23.2,23.2,0,0,1,8.59-6.1A33.39,33.39,0,0,1,262,125a22.17,22.17,0,0,1,8.54,6.14,27.59,27.59,0,0,1,5.23,9.83,43.81,43.81,0,0,1,1.81,13.1q0,14.76-7,22.23T250.38,183.81Zm0-10.22a15.58,15.58,0,0,0,6-1.16,13.17,13.17,0,0,0,4.94-3.52,16.74,16.74,0,0,0,3.3-6,28.11,28.11,0,0,0,1.21-8.75q0-10.14-3.95-15.37t-11.51-5.24q-7.55,0-11.59,5.24t-4,15.37q0,10.13,4.08,14.8T250.38,173.59Z"/><path class="cls-2" d="M308.16,181.84V156.25q0-4.89-1.63-6.61c-1.09-1.14-2.95-1.72-5.58-1.72q-8.67,0-8.67,9.7v24.22H281.12V139.6h10.64v6.18a13.51,13.51,0,0,1,5.24-5.45,17,17,0,0,1,8.41-1.85,16.74,16.74,0,0,1,5.58.9,11.69,11.69,0,0,1,4.42,2.71,12.82,12.82,0,0,1,2.92,4.42,15.74,15.74,0,0,1,1.08,6.05v29.28Z"/><path class="cls-2" d="M223,113.79v-57h28.07q8.42,0,12.79,4.16t4.38,11.38a11.38,11.38,0,0,1-2,6.57,10.93,10.93,0,0,1-5,4.07,17,17,0,0,1,3.39,1.76,10.54,10.54,0,0,1,2.74,2.75,14,14,0,0,1,1.85,4,18.63,18.63,0,0,1,.69,5.37q0,7.81-5.24,12.4t-16.05,4.6Zm11.5-47.14V79h15q7.22,0,7.22-6.19,0-3.26-1.85-4.72t-6-1.46Zm15.11,37.43a8.73,8.73,0,0,0,6.44-2.31,7.94,7.94,0,0,0,2.32-5.84q0-3.78-2.28-5.5a10.29,10.29,0,0,0-6.31-1.71H234.5v15.36Z"/><path class="cls-2" d="M299.66,113.79v-5.93q-4.29,7-13.13,7a14.73,14.73,0,0,1-5.8-1.11,13.11,13.11,0,0,1-4.51-3.18,15.07,15.07,0,0,1-3-4.9,17.88,17.88,0,0,1-1.07-6.35V71.55h11.16v26.1q0,7.89,7.13,7.89a7.85,7.85,0,0,0,6.48-2.7,10.63,10.63,0,0,0,2.19-6.91V71.55h11.07v42.24Z"/><path class="cls-2" d="M344,113.79l-.09-5.16q-3.86,6.27-11.76,6.27a17.39,17.39,0,0,1-7.38-1.54,16.09,16.09,0,0,1-5.75-4.47,21.36,21.36,0,0,1-3.78-7.12,30.54,30.54,0,0,1-1.37-9.53,31.19,31.19,0,0,1,1.16-8.8,20.56,20.56,0,0,1,3.39-6.91A15.2,15.2,0,0,1,323.83,72a16.33,16.33,0,0,1,7.34-1.59A14.67,14.67,0,0,1,343.7,77v-21h11v57.7Zm-9.27-8a8.32,8.32,0,0,0,6.74-3.35,13.51,13.51,0,0,0,2.7-8.75q0-13.74-9.36-13.74-9.61,0-9.61,13.05a15.06,15.06,0,0,0,2.66,9.23A8.21,8.21,0,0,0,334.69,105.8Z"/><path class="cls-2" d="M388.43,113.79l-.09-5.16q-3.85,6.27-11.76,6.27a17.39,17.39,0,0,1-7.38-1.54,16.09,16.09,0,0,1-5.75-4.47,21.36,21.36,0,0,1-3.78-7.12,30.54,30.54,0,0,1-1.37-9.53,31.19,31.19,0,0,1,1.16-8.8,20.56,20.56,0,0,1,3.39-6.91A15.2,15.2,0,0,1,368.3,72a16.33,16.33,0,0,1,7.34-1.59A14.66,14.66,0,0,1,388.17,77v-21h11v57.7Zm-9.27-8a8.32,8.32,0,0,0,6.74-3.35,13.51,13.51,0,0,0,2.7-8.75Q388.6,80,379.24,80q-9.62,0-9.61,13.05a15.06,15.06,0,0,0,2.66,9.23A8.21,8.21,0,0,0,379.16,105.8Z"/><path class="cls-2" d="M430.5,108.2a8.84,8.84,0,0,1-4.34,4.43,15.43,15.43,0,0,1-7.08,1.58,17.22,17.22,0,0,1-6.18-1.07,13.9,13.9,0,0,1-4.9-3.09,14.47,14.47,0,0,1-3.22-4.81,16.35,16.35,0,0,1-1.16-6.31V71.55h11.17V97.3q0,7.9,7.12,7.9a8.7,8.7,0,0,0,6.23-2.23,7.48,7.48,0,0,0,2.36-5.67V71.55h11.16V114.9a20,20,0,0,1-1.51,8,16.89,16.89,0,0,1-4.12,5.92,18.1,18.1,0,0,1-6.18,3.69,22.12,22.12,0,0,1-7.59,1.29q-9.36,0-14-4.72t-4.64-13H414A7.93,7.93,0,0,0,416.2,122q2.19,2.14,6.57,2.14a6.8,6.8,0,0,0,2.92-.64,8,8,0,0,0,2.45-1.8,8.77,8.77,0,0,0,1.71-2.88,10.63,10.63,0,0,0,.65-3.78Z"/><path class="cls-3" d="M54.52,230.11c0,11.71-8.26,20-19.93,20-11.82.05-20.63-8.39-20.76-19.85A20.58,20.58,0,0,1,34.35,209.5,20.24,20.24,0,0,1,54.52,230.11Z"/><path class="cls-4" d="M208.51,226.34a35.87,35.87,0,0,1-1.1,9.37c-2.77,10.37-11.36,15.71-22.74,14.33-9.62-1.17-16.63-9.2-16.74-19.83-.18-18.54,0-37.08-.11-55.61-.06-8.16-2.66-15.09-10.47-19.11-8.09-4.15-16.37-2.82-23.31,4-9,8.87-17.79,17.93-26.84,26.74-5.76,5.6-12.55,8.78-20.88,7.07a19.81,19.81,0,0,1-14.31-27,31.19,31.19,0,0,1,7-10c8.55-8.54,17.17-17,25.6-25.67,7.29-7.45,8.63-15.47,4.25-23.58-3.67-6.79-9.49-10.13-17.11-10.17-18.54-.07-37.08,0-55.61,0-11.25,0-18.68-5.31-21.51-15-3.95-13.55,5.7-25.62,20.71-25.66,25.54-.09,51.08,0,76.62,0h74.16c14.68,0,22.29,7.53,22.32,22.35q.09,51.9,0,103.8Q208.5,204.31,208.51,226.34Z"/></g></svg>