<svg width="2278" height="793" viewBox="0 0 2278 793" fill="none" xmlns="http://www.w3.org/2000/svg">
<rect x="0.5" y="297.5" width="99" height="99" fill="white" fill-opacity="0.04"/>
<rect x="0.5" y="297.5" width="99" height="99" stroke="#4680F5"/>
<rect x="0.5" y="693.5" width="99" height="99" fill="white" fill-opacity="0.04"/>
<rect x="0.5" y="693.5" width="99" height="99" stroke="#4680F5"/>
<rect x="0.5" y="99.5" width="99" height="99" fill="white" fill-opacity="0.04"/>
<rect x="0.5" y="99.5" width="99" height="99" stroke="#4680F5"/>
<rect x="0.5" y="495.5" width="99" height="99" fill="white" fill-opacity="0.04"/>
<rect x="0.5" y="495.5" width="99" height="99" stroke="#4680F5"/>
<rect x="0.5" y="198.5" width="99" height="99" fill="white" fill-opacity="0.08"/>
<rect x="0.5" y="198.5" width="99" height="99" stroke="#4680F5"/>
<rect x="0.5" y="594.5" width="99" height="99" fill="white" fill-opacity="0.04"/>
<rect x="0.5" y="594.5" width="99" height="99" stroke="#4680F5"/>
<rect x="0.5" y="0.5" width="99" height="99" fill="white" fill-opacity="0.04"/>
<rect x="0.5" y="0.5" width="99" height="99" stroke="#4680F5"/>
<rect x="0.5" y="396.5" width="99" height="99" fill="white" fill-opacity="0.04"/>
<rect x="0.5" y="396.5" width="99" height="99" stroke="#4680F5"/>
<rect x="594.5" y="297.5" width="99" height="99" fill="white" fill-opacity="0.04"/>
<rect x="594.5" y="297.5" width="99" height="99" stroke="#4680F5"/>
<rect x="594.5" y="693.5" width="99" height="99" fill="white" fill-opacity="0.04"/>
<rect x="594.5" y="693.5" width="99" height="99" stroke="#4680F5"/>
<rect x="594.5" y="99.5" width="99" height="99" fill="white" fill-opacity="0.04"/>
<rect x="594.5" y="99.5" width="99" height="99" stroke="#4680F5"/>
<rect x="594.5" y="495.5" width="99" height="99" fill="white" fill-opacity="0.04"/>
<rect x="594.5" y="495.5" width="99" height="99" stroke="#4680F5"/>
<rect x="594.5" y="198.5" width="99" height="99" fill="white" fill-opacity="0.08"/>
<rect x="594.5" y="198.5" width="99" height="99" stroke="#4680F5"/>
<rect x="594.5" y="594.5" width="99" height="99" fill="white" fill-opacity="0.04"/>
<rect x="594.5" y="594.5" width="99" height="99" stroke="#4680F5"/>
<rect x="594.5" y="0.5" width="99" height="99" fill="white" fill-opacity="0.08"/>
<rect x="594.5" y="0.5" width="99" height="99" stroke="#4680F5"/>
<rect x="594.5" y="396.5" width="99" height="99" fill="white" fill-opacity="0.04"/>
<rect x="594.5" y="396.5" width="99" height="99" stroke="#4680F5"/>
<rect x="297.5" y="297.5" width="99" height="99" fill="white" fill-opacity="0.04"/>
<rect x="297.5" y="297.5" width="99" height="99" stroke="#4680F5"/>
<rect x="297.5" y="693.5" width="99" height="99" fill="white" fill-opacity="0.04"/>
<rect x="297.5" y="693.5" width="99" height="99" stroke="#4680F5"/>
<rect x="297.5" y="99.5" width="99" height="99" fill="white" fill-opacity="0.04"/>
<rect x="297.5" y="99.5" width="99" height="99" stroke="#4680F5"/>
<rect x="297.5" y="495.5" width="99" height="99" fill="white" fill-opacity="0.04"/>
<rect x="297.5" y="495.5" width="99" height="99" stroke="#4680F5"/>
<rect x="297.5" y="198.5" width="99" height="99" fill="white" fill-opacity="0.04"/>
<rect x="297.5" y="198.5" width="99" height="99" stroke="#4680F5"/>
<rect x="297.5" y="594.5" width="99" height="99" fill="white" fill-opacity="0.04"/>
<rect x="297.5" y="594.5" width="99" height="99" stroke="#4680F5"/>
<rect x="297.5" y="0.5" width="99" height="99" fill="white" fill-opacity="0.04"/>
<rect x="297.5" y="0.5" width="99" height="99" stroke="#4680F5"/>
<rect x="297.5" y="396.5" width="99" height="99" fill="white" fill-opacity="0.04"/>
<rect x="297.5" y="396.5" width="99" height="99" stroke="#4680F5"/>
<rect x="891.5" y="297.5" width="99" height="99" fill="white" fill-opacity="0.04"/>
<rect x="891.5" y="297.5" width="99" height="99" stroke="#4680F5"/>
<rect x="1584.5" y="297.5" width="99" height="99" fill="white" fill-opacity="0.04"/>
<rect x="1584.5" y="297.5" width="99" height="99" stroke="#4680F5"/>
<rect x="891.5" y="693.5" width="99" height="99" fill="white" fill-opacity="0.04"/>
<rect x="891.5" y="693.5" width="99" height="99" stroke="#4680F5"/>
<rect x="1584.5" y="693.5" width="99" height="99" fill="white" fill-opacity="0.08"/>
<rect x="1584.5" y="693.5" width="99" height="99" stroke="#4680F5"/>
<rect x="891.5" y="99.5" width="99" height="99" fill="white" fill-opacity="0.04"/>
<rect x="891.5" y="99.5" width="99" height="99" stroke="#4680F5"/>
<rect x="1584.5" y="99.5" width="99" height="99" fill="white" fill-opacity="0.04"/>
<rect x="1584.5" y="99.5" width="99" height="99" stroke="#4680F5"/>
<rect x="891.5" y="495.5" width="99" height="99" fill="white" fill-opacity="0.04"/>
<rect x="891.5" y="495.5" width="99" height="99" stroke="#4680F5"/>
<rect x="1584.5" y="495.5" width="99" height="99" fill="white" fill-opacity="0.04"/>
<rect x="1584.5" y="495.5" width="99" height="99" stroke="#4680F5"/>
<rect x="891.5" y="198.5" width="99" height="99" fill="white" fill-opacity="0.12"/>
<rect x="891.5" y="198.5" width="99" height="99" stroke="#4680F5"/>
<rect x="1584.5" y="198.5" width="99" height="99" fill="white" fill-opacity="0.08"/>
<rect x="1584.5" y="198.5" width="99" height="99" stroke="#4680F5"/>
<rect x="891.5" y="594.5" width="99" height="99" fill="white" fill-opacity="0.04"/>
<rect x="891.5" y="594.5" width="99" height="99" stroke="#4680F5"/>
<rect x="1584.5" y="594.5" width="99" height="99" fill="white" fill-opacity="0.04"/>
<rect x="1584.5" y="594.5" width="99" height="99" stroke="#4680F5"/>
<rect x="891.5" y="0.5" width="99" height="99" fill="white" fill-opacity="0.04"/>
<rect x="891.5" y="0.5" width="99" height="99" stroke="#4680F5"/>
<rect x="1584.5" y="0.5" width="99" height="99" fill="white" fill-opacity="0.04"/>
<rect x="1584.5" y="0.5" width="99" height="99" stroke="#4680F5"/>
<rect x="891.5" y="396.5" width="99" height="99" fill="white" fill-opacity="0.08"/>
<rect x="891.5" y="396.5" width="99" height="99" stroke="#4680F5"/>
<rect x="1584.5" y="396.5" width="99" height="99" fill="white" fill-opacity="0.04"/>
<rect x="1584.5" y="396.5" width="99" height="99" stroke="#4680F5"/>
<rect x="1287.5" y="297.5" width="99" height="99" fill="white" fill-opacity="0.04"/>
<rect x="1287.5" y="297.5" width="99" height="99" stroke="#4680F5"/>
<rect x="1980.5" y="297.5" width="99" height="99" fill="white" fill-opacity="0.04"/>
<rect x="1980.5" y="297.5" width="99" height="99" stroke="#4680F5"/>
<rect x="1287.5" y="693.5" width="99" height="99" fill="white" fill-opacity="0.04"/>
<rect x="1287.5" y="693.5" width="99" height="99" stroke="#4680F5"/>
<rect x="1980.5" y="693.5" width="99" height="99" fill="white" fill-opacity="0.04"/>
<rect x="1980.5" y="693.5" width="99" height="99" stroke="#4680F5"/>
<rect x="1287.5" y="99.5" width="99" height="99" fill="white" fill-opacity="0.04"/>
<rect x="1287.5" y="99.5" width="99" height="99" stroke="#4680F5"/>
<rect x="1980.5" y="99.5" width="99" height="99" fill="white" fill-opacity="0.04"/>
<rect x="1980.5" y="99.5" width="99" height="99" stroke="#4680F5"/>
<rect x="1287.5" y="495.5" width="99" height="99" fill="white" fill-opacity="0.04"/>
<rect x="1287.5" y="495.5" width="99" height="99" stroke="#4680F5"/>
<rect x="1980.5" y="495.5" width="99" height="99" fill="white" fill-opacity="0.04"/>
<rect x="1980.5" y="495.5" width="99" height="99" stroke="#4680F5"/>
<rect x="1287.5" y="198.5" width="99" height="99" fill="white" fill-opacity="0.12"/>
<rect x="1287.5" y="198.5" width="99" height="99" stroke="#4680F5"/>
<rect x="1980.5" y="198.5" width="99" height="99" fill="white" fill-opacity="0.04"/>
<rect x="1980.5" y="198.5" width="99" height="99" stroke="#4680F5"/>
<rect x="1287.5" y="594.5" width="99" height="99" fill="white" fill-opacity="0.04"/>
<rect x="1287.5" y="594.5" width="99" height="99" stroke="#4680F5"/>
<rect x="1980.5" y="594.5" width="99" height="99" fill="white" fill-opacity="0.04"/>
<rect x="1980.5" y="594.5" width="99" height="99" stroke="#4680F5"/>
<rect x="1287.5" y="0.5" width="99" height="99" fill="white" fill-opacity="0.04"/>
<rect x="1287.5" y="0.5" width="99" height="99" stroke="#4680F5"/>
<rect x="1980.5" y="0.5" width="99" height="99" fill="white" fill-opacity="0.04"/>
<rect x="1980.5" y="0.5" width="99" height="99" stroke="#4680F5"/>
<rect x="1287.5" y="396.5" width="99" height="99" fill="white" fill-opacity="0.04"/>
<rect x="1287.5" y="396.5" width="99" height="99" stroke="#4680F5"/>
<rect x="1980.5" y="396.5" width="99" height="99" fill="white" fill-opacity="0.04"/>
<rect x="1980.5" y="396.5" width="99" height="99" stroke="#4680F5"/>
<rect x="99.5" y="297.5" width="99" height="99" fill="white" fill-opacity="0.04"/>
<rect x="99.5" y="297.5" width="99" height="99" stroke="#4680F5"/>
<rect x="99.5" y="693.5" width="99" height="99" fill="white" fill-opacity="0.08"/>
<rect x="99.5" y="693.5" width="99" height="99" stroke="#4680F5"/>
<rect x="99.5" y="99.5" width="99" height="99" fill="white" fill-opacity="0.04"/>
<rect x="99.5" y="99.5" width="99" height="99" stroke="#4680F5"/>
<rect x="99.5" y="495.5" width="99" height="99" fill="white" fill-opacity="0.04"/>
<rect x="99.5" y="495.5" width="99" height="99" stroke="#4680F5"/>
<rect x="99.5" y="198.5" width="99" height="99" fill="white" fill-opacity="0.04"/>
<rect x="99.5" y="198.5" width="99" height="99" stroke="#4680F5"/>
<rect x="99.5" y="594.5" width="99" height="99" fill="white" fill-opacity="0.04"/>
<rect x="99.5" y="594.5" width="99" height="99" stroke="#4680F5"/>
<rect x="99.5" y="0.5" width="99" height="99" fill="white" fill-opacity="0.04"/>
<rect x="99.5" y="0.5" width="99" height="99" stroke="#4680F5"/>
<rect x="99.5" y="396.5" width="99" height="99" fill="white" fill-opacity="0.04"/>
<rect x="99.5" y="396.5" width="99" height="99" stroke="#4680F5"/>
<rect x="693.5" y="297.5" width="99" height="99" fill="white" fill-opacity="0.04"/>
<rect x="693.5" y="297.5" width="99" height="99" stroke="#4680F5"/>
<rect x="693.5" y="693.5" width="99" height="99" fill="white" fill-opacity="0.04"/>
<rect x="693.5" y="693.5" width="99" height="99" stroke="#4680F5"/>
<rect x="693.5" y="99.5" width="99" height="99" fill="white" fill-opacity="0.04"/>
<rect x="693.5" y="99.5" width="99" height="99" stroke="#4680F5"/>
<rect x="693.5" y="495.5" width="99" height="99" fill="white" fill-opacity="0.04"/>
<rect x="693.5" y="495.5" width="99" height="99" stroke="#4680F5"/>
<rect x="693.5" y="198.5" width="99" height="99" fill="white" fill-opacity="0.04"/>
<rect x="693.5" y="198.5" width="99" height="99" stroke="#4680F5"/>
<rect x="693.5" y="594.5" width="99" height="99" fill="white" fill-opacity="0.04"/>
<rect x="693.5" y="594.5" width="99" height="99" stroke="#4680F5"/>
<rect x="693.5" y="0.5" width="99" height="99" fill="white" fill-opacity="0.04"/>
<rect x="693.5" y="0.5" width="99" height="99" stroke="#4680F5"/>
<rect x="693.5" y="396.5" width="99" height="99" fill="white" fill-opacity="0.08"/>
<rect x="693.5" y="396.5" width="99" height="99" stroke="#4680F5"/>
<rect x="396.5" y="297.5" width="99" height="99" fill="white" fill-opacity="0.04"/>
<rect x="396.5" y="297.5" width="99" height="99" stroke="#4680F5"/>
<rect x="396.5" y="693.5" width="99" height="99" fill="white" fill-opacity="0.04"/>
<rect x="396.5" y="693.5" width="99" height="99" stroke="#4680F5"/>
<rect x="396.5" y="99.5" width="99" height="99" fill="white" fill-opacity="0.08"/>
<rect x="396.5" y="99.5" width="99" height="99" stroke="#4680F5"/>
<rect x="396.5" y="495.5" width="99" height="99" fill="white" fill-opacity="0.04"/>
<rect x="396.5" y="495.5" width="99" height="99" stroke="#4680F5"/>
<rect x="396.5" y="198.5" width="99" height="99" fill="white" fill-opacity="0.04"/>
<rect x="396.5" y="198.5" width="99" height="99" stroke="#4680F5"/>
<rect x="396.5" y="594.5" width="99" height="99" fill="white" fill-opacity="0.04"/>
<rect x="396.5" y="594.5" width="99" height="99" stroke="#4680F5"/>
<rect x="396.5" y="0.5" width="99" height="99" fill="white" fill-opacity="0.04"/>
<rect x="396.5" y="0.5" width="99" height="99" stroke="#4680F5"/>
<rect x="396.5" y="396.5" width="99" height="99" fill="white" fill-opacity="0.04"/>
<rect x="396.5" y="396.5" width="99" height="99" stroke="#4680F5"/>
<rect x="990.5" y="297.5" width="99" height="99" fill="white" fill-opacity="0.04"/>
<rect x="990.5" y="297.5" width="99" height="99" stroke="#4680F5"/>
<rect x="1683.5" y="297.5" width="99" height="99" fill="white" fill-opacity="0.08"/>
<rect x="1683.5" y="297.5" width="99" height="99" stroke="#4680F5"/>
<rect x="990.5" y="693.5" width="99" height="99" fill="white" fill-opacity="0.04"/>
<rect x="990.5" y="693.5" width="99" height="99" stroke="#4680F5"/>
<rect x="1683.5" y="693.5" width="99" height="99" fill="white" fill-opacity="0.04"/>
<rect x="1683.5" y="693.5" width="99" height="99" stroke="#4680F5"/>
<rect x="990.5" y="99.5" width="99" height="99" fill="white" fill-opacity="0.04"/>
<rect x="990.5" y="99.5" width="99" height="99" stroke="#4680F5"/>
<rect x="1683.5" y="99.5" width="99" height="99" fill="white" fill-opacity="0.04"/>
<rect x="1683.5" y="99.5" width="99" height="99" stroke="#4680F5"/>
<rect x="990.5" y="495.5" width="99" height="99" fill="white" fill-opacity="0.04"/>
<rect x="990.5" y="495.5" width="99" height="99" stroke="#4680F5"/>
<rect x="1683.5" y="495.5" width="99" height="99" fill="white" fill-opacity="0.12"/>
<rect x="1683.5" y="495.5" width="99" height="99" stroke="#4680F5"/>
<rect x="990.5" y="198.5" width="99" height="99" fill="white" fill-opacity="0.04"/>
<rect x="990.5" y="198.5" width="99" height="99" stroke="#4680F5"/>
<rect x="1683.5" y="198.5" width="99" height="99" fill="white" fill-opacity="0.04"/>
<rect x="1683.5" y="198.5" width="99" height="99" stroke="#4680F5"/>
<rect x="990.5" y="594.5" width="99" height="99" fill="white" fill-opacity="0.04"/>
<rect x="990.5" y="594.5" width="99" height="99" stroke="#4680F5"/>
<rect x="1683.5" y="594.5" width="99" height="99" fill="white" fill-opacity="0.04"/>
<rect x="1683.5" y="594.5" width="99" height="99" stroke="#4680F5"/>
<rect x="990.5" y="0.5" width="99" height="99" fill="white" fill-opacity="0.04"/>
<rect x="990.5" y="0.5" width="99" height="99" stroke="#4680F5"/>
<rect x="1683.5" y="0.5" width="99" height="99" fill="white" fill-opacity="0.04"/>
<rect x="1683.5" y="0.5" width="99" height="99" stroke="#4680F5"/>
<rect x="990.5" y="396.5" width="99" height="99" fill="white" fill-opacity="0.04"/>
<rect x="990.5" y="396.5" width="99" height="99" stroke="#4680F5"/>
<rect x="1683.5" y="396.5" width="99" height="99" fill="white" fill-opacity="0.04"/>
<rect x="1683.5" y="396.5" width="99" height="99" stroke="#4680F5"/>
<rect x="1386.5" y="297.5" width="99" height="99" fill="white" fill-opacity="0.04"/>
<rect x="1386.5" y="297.5" width="99" height="99" stroke="#4680F5"/>
<rect x="2079.5" y="297.5" width="99" height="99" fill="white" fill-opacity="0.04"/>
<rect x="2079.5" y="297.5" width="99" height="99" stroke="#4680F5"/>
<rect x="1386.5" y="693.5" width="99" height="99" fill="white" fill-opacity="0.04"/>
<rect x="1386.5" y="693.5" width="99" height="99" stroke="#4680F5"/>
<rect x="2079.5" y="693.5" width="99" height="99" fill="white" fill-opacity="0.04"/>
<rect x="2079.5" y="693.5" width="99" height="99" stroke="#4680F5"/>
<rect x="1386.5" y="99.5" width="99" height="99" fill="white" fill-opacity="0.04"/>
<rect x="1386.5" y="99.5" width="99" height="99" stroke="#4680F5"/>
<rect x="2079.5" y="99.5" width="99" height="99" fill="white" fill-opacity="0.04"/>
<rect x="2079.5" y="99.5" width="99" height="99" stroke="#4680F5"/>
<rect x="1386.5" y="495.5" width="99" height="99" fill="white" fill-opacity="0.04"/>
<rect x="1386.5" y="495.5" width="99" height="99" stroke="#4680F5"/>
<rect x="2079.5" y="495.5" width="99" height="99" fill="white" fill-opacity="0.08"/>
<rect x="2079.5" y="495.5" width="99" height="99" stroke="#4680F5"/>
<rect x="1386.5" y="198.5" width="99" height="99" fill="white" fill-opacity="0.04"/>
<rect x="1386.5" y="198.5" width="99" height="99" stroke="#4680F5"/>
<rect x="2079.5" y="198.5" width="99" height="99" fill="white" fill-opacity="0.04"/>
<rect x="2079.5" y="198.5" width="99" height="99" stroke="#4680F5"/>
<rect x="1386.5" y="594.5" width="99" height="99" fill="white" fill-opacity="0.04"/>
<rect x="1386.5" y="594.5" width="99" height="99" stroke="#4680F5"/>
<rect x="2079.5" y="594.5" width="99" height="99" fill="white" fill-opacity="0.04"/>
<rect x="2079.5" y="594.5" width="99" height="99" stroke="#4680F5"/>
<rect x="1386.5" y="0.5" width="99" height="99" fill="white" fill-opacity="0.04"/>
<rect x="1386.5" y="0.5" width="99" height="99" stroke="#4680F5"/>
<rect x="2079.5" y="0.5" width="99" height="99" fill="white" fill-opacity="0.08"/>
<rect x="2079.5" y="0.5" width="99" height="99" stroke="#4680F5"/>
<rect x="1386.5" y="396.5" width="99" height="99" fill="white" fill-opacity="0.08"/>
<rect x="1386.5" y="396.5" width="99" height="99" stroke="#4680F5"/>
<rect x="2079.5" y="396.5" width="99" height="99" fill="white" fill-opacity="0.04"/>
<rect x="2079.5" y="396.5" width="99" height="99" stroke="#4680F5"/>
<rect x="198.5" y="297.5" width="99" height="99" fill="white" fill-opacity="0.04"/>
<rect x="198.5" y="297.5" width="99" height="99" stroke="#4680F5"/>
<rect x="198.5" y="693.5" width="99" height="99" fill="white" fill-opacity="0.04"/>
<rect x="198.5" y="693.5" width="99" height="99" stroke="#4680F5"/>
<rect x="198.5" y="99.5" width="99" height="99" fill="white" fill-opacity="0.04"/>
<rect x="198.5" y="99.5" width="99" height="99" stroke="#4680F5"/>
<rect x="198.5" y="495.5" width="99" height="99" fill="white" fill-opacity="0.08"/>
<rect x="198.5" y="495.5" width="99" height="99" stroke="#4680F5"/>
<rect x="198.5" y="198.5" width="99" height="99" fill="white" fill-opacity="0.04"/>
<rect x="198.5" y="198.5" width="99" height="99" stroke="#4680F5"/>
<rect x="198.5" y="594.5" width="99" height="99" fill="white" fill-opacity="0.04"/>
<rect x="198.5" y="594.5" width="99" height="99" stroke="#4680F5"/>
<rect x="198.5" y="0.5" width="99" height="99" fill="white" fill-opacity="0.08"/>
<rect x="198.5" y="0.5" width="99" height="99" stroke="#4680F5"/>
<rect x="198.5" y="396.5" width="99" height="99" fill="white" fill-opacity="0.04"/>
<rect x="198.5" y="396.5" width="99" height="99" stroke="#4680F5"/>
<rect x="792.5" y="297.5" width="99" height="99" fill="white" fill-opacity="0.04"/>
<rect x="792.5" y="297.5" width="99" height="99" stroke="#4680F5"/>
<rect x="792.5" y="693.5" width="99" height="99" fill="white" fill-opacity="0.04"/>
<rect x="792.5" y="693.5" width="99" height="99" stroke="#4680F5"/>
<rect x="792.5" y="99.5" width="99" height="99" fill="white" fill-opacity="0.04"/>
<rect x="792.5" y="99.5" width="99" height="99" stroke="#4680F5"/>
<rect x="792.5" y="495.5" width="99" height="99" fill="white" fill-opacity="0.08"/>
<rect x="792.5" y="495.5" width="99" height="99" stroke="#4680F5"/>
<rect x="792.5" y="198.5" width="99" height="99" fill="white" fill-opacity="0.04"/>
<rect x="792.5" y="198.5" width="99" height="99" stroke="#4680F5"/>
<rect x="792.5" y="594.5" width="99" height="99" fill="white" fill-opacity="0.04"/>
<rect x="792.5" y="594.5" width="99" height="99" stroke="#4680F5"/>
<rect x="792.5" y="0.5" width="99" height="99" fill="white" fill-opacity="0.04"/>
<rect x="792.5" y="0.5" width="99" height="99" stroke="#4680F5"/>
<rect x="792.5" y="396.5" width="99" height="99" fill="white" fill-opacity="0.04"/>
<rect x="792.5" y="396.5" width="99" height="99" stroke="#4680F5"/>
<rect x="1188.5" y="297.5" width="99" height="99" fill="white" fill-opacity="0.04"/>
<rect x="1188.5" y="297.5" width="99" height="99" stroke="#4680F5"/>
<rect x="1881.5" y="297.5" width="99" height="99" fill="white" fill-opacity="0.04"/>
<rect x="1881.5" y="297.5" width="99" height="99" stroke="#4680F5"/>
<rect x="1188.5" y="693.5" width="99" height="99" fill="white" fill-opacity="0.04"/>
<rect x="1188.5" y="693.5" width="99" height="99" stroke="#4680F5"/>
<rect x="1881.5" y="693.5" width="99" height="99" fill="white" fill-opacity="0.08"/>
<rect x="1881.5" y="693.5" width="99" height="99" stroke="#4680F5"/>
<rect x="1188.5" y="99.5" width="99" height="99" fill="white" fill-opacity="0.04"/>
<rect x="1188.5" y="99.5" width="99" height="99" stroke="#4680F5"/>
<rect x="1881.5" y="99.5" width="99" height="99" fill="white" fill-opacity="0.04"/>
<rect x="1881.5" y="99.5" width="99" height="99" stroke="#4680F5"/>
<rect x="1188.5" y="495.5" width="99" height="99" fill="white" fill-opacity="0.04"/>
<rect x="1188.5" y="495.5" width="99" height="99" stroke="#4680F5"/>
<rect x="1881.5" y="495.5" width="99" height="99" fill="white" fill-opacity="0.04"/>
<rect x="1881.5" y="495.5" width="99" height="99" stroke="#4680F5"/>
<rect x="1188.5" y="198.5" width="99" height="99" fill="white" fill-opacity="0.04"/>
<rect x="1188.5" y="198.5" width="99" height="99" stroke="#4680F5"/>
<rect x="1881.5" y="198.5" width="99" height="99" fill="white" fill-opacity="0.08"/>
<rect x="1881.5" y="198.5" width="99" height="99" stroke="#4680F5"/>
<rect x="1188.5" y="594.5" width="99" height="99" fill="white" fill-opacity="0.04"/>
<rect x="1188.5" y="594.5" width="99" height="99" stroke="#4680F5"/>
<rect x="1881.5" y="594.5" width="99" height="99" fill="white" fill-opacity="0.04"/>
<rect x="1881.5" y="594.5" width="99" height="99" stroke="#4680F5"/>
<rect x="1188.5" y="0.5" width="99" height="99" fill="white" fill-opacity="0.08"/>
<rect x="1188.5" y="0.5" width="99" height="99" stroke="#4680F5"/>
<rect x="1881.5" y="0.5" width="99" height="99" fill="white" fill-opacity="0.04"/>
<rect x="1881.5" y="0.5" width="99" height="99" stroke="#4680F5"/>
<rect x="1188.5" y="396.5" width="99" height="99" stroke="#4680F5"/>
<rect x="1881.5" y="396.5" width="99" height="99" fill="white" fill-opacity="0.08"/>
<rect x="1881.5" y="396.5" width="99" height="99" stroke="#4680F5"/>
<rect x="495.5" y="297.5" width="99" height="99" fill="white" fill-opacity="0.12"/>
<rect x="495.5" y="297.5" width="99" height="99" stroke="#4680F5"/>
<rect x="495.5" y="693.5" width="99" height="99" fill="white" fill-opacity="0.04"/>
<rect x="495.5" y="693.5" width="99" height="99" stroke="#4680F5"/>
<rect x="495.5" y="99.5" width="99" height="99" fill="white" fill-opacity="0.04"/>
<rect x="495.5" y="99.5" width="99" height="99" stroke="#4680F5"/>
<rect x="495.5" y="495.5" width="99" height="99" fill="white" fill-opacity="0.08"/>
<rect x="495.5" y="495.5" width="99" height="99" stroke="#4680F5"/>
<rect x="495.5" y="198.5" width="99" height="99" fill="white" fill-opacity="0.04"/>
<rect x="495.5" y="198.5" width="99" height="99" stroke="#4680F5"/>
<rect x="495.5" y="594.5" width="99" height="99" fill="white" fill-opacity="0.04"/>
<rect x="495.5" y="594.5" width="99" height="99" stroke="#4680F5"/>
<rect x="495.5" y="0.5" width="99" height="99" fill="white" fill-opacity="0.04"/>
<rect x="495.5" y="0.5" width="99" height="99" stroke="#4680F5"/>
<rect x="495.5" y="396.5" width="99" height="99" fill="white" fill-opacity="0.04"/>
<rect x="495.5" y="396.5" width="99" height="99" stroke="#4680F5"/>
<rect x="1089.5" y="297.5" width="99" height="99" fill="white" fill-opacity="0.08"/>
<rect x="1089.5" y="297.5" width="99" height="99" stroke="#4680F5"/>
<rect x="1782.5" y="297.5" width="99" height="99" fill="white" fill-opacity="0.04"/>
<rect x="1782.5" y="297.5" width="99" height="99" stroke="#4680F5"/>
<rect x="1089.5" y="693.5" width="99" height="99" fill="white" fill-opacity="0.04"/>
<rect x="1089.5" y="693.5" width="99" height="99" stroke="#4680F5"/>
<rect x="1782.5" y="693.5" width="99" height="99" fill="white" fill-opacity="0.04"/>
<rect x="1782.5" y="693.5" width="99" height="99" stroke="#4680F5"/>
<rect x="1089.5" y="99.5" width="99" height="99" fill="white" fill-opacity="0.08"/>
<rect x="1089.5" y="99.5" width="99" height="99" stroke="#4680F5"/>
<rect x="1782.5" y="99.5" width="99" height="99" fill="white" fill-opacity="0.04"/>
<rect x="1782.5" y="99.5" width="99" height="99" stroke="#4680F5"/>
<rect x="1089.5" y="495.5" width="99" height="99" fill="white" fill-opacity="0.12"/>
<rect x="1089.5" y="495.5" width="99" height="99" stroke="#4680F5"/>
<rect x="1782.5" y="495.5" width="99" height="99" fill="white" fill-opacity="0.04"/>
<rect x="1782.5" y="495.5" width="99" height="99" stroke="#4680F5"/>
<rect x="1089.5" y="198.5" width="99" height="99" fill="white" fill-opacity="0.04"/>
<rect x="1089.5" y="198.5" width="99" height="99" stroke="#4680F5"/>
<rect x="1782.5" y="198.5" width="99" height="99" fill="white" fill-opacity="0.04"/>
<rect x="1782.5" y="198.5" width="99" height="99" stroke="#4680F5"/>
<rect x="1089.5" y="594.5" width="99" height="99" fill="white" fill-opacity="0.04"/>
<rect x="1089.5" y="594.5" width="99" height="99" stroke="#4680F5"/>
<rect x="1782.5" y="594.5" width="99" height="99" fill="white" fill-opacity="0.04"/>
<rect x="1782.5" y="594.5" width="99" height="99" stroke="#4680F5"/>
<rect x="1089.5" y="0.5" width="99" height="99" fill="white" fill-opacity="0.04"/>
<rect x="1089.5" y="0.5" width="99" height="99" stroke="#4680F5"/>
<rect x="1782.5" y="0.5" width="99" height="99" fill="white" fill-opacity="0.08"/>
<rect x="1782.5" y="0.5" width="99" height="99" stroke="#4680F5"/>
<rect x="1089.5" y="396.5" width="99" height="99" fill="white" fill-opacity="0.04"/>
<rect x="1089.5" y="396.5" width="99" height="99" stroke="#4680F5"/>
<rect x="1782.5" y="396.5" width="99" height="99" fill="white" fill-opacity="0.04"/>
<rect x="1782.5" y="396.5" width="99" height="99" stroke="#4680F5"/>
<rect x="1485.5" y="297.5" width="99" height="99" fill="white" fill-opacity="0.04"/>
<rect x="1485.5" y="297.5" width="99" height="99" stroke="#4680F5"/>
<rect x="2178.5" y="297.5" width="99" height="99" fill="white" fill-opacity="0.08"/>
<rect x="2178.5" y="297.5" width="99" height="99" stroke="#4680F5"/>
<rect x="1485.5" y="693.5" width="99" height="99" fill="white" fill-opacity="0.04"/>
<rect x="1485.5" y="693.5" width="99" height="99" stroke="#4680F5"/>
<rect x="2178.5" y="693.5" width="99" height="99" fill="white" fill-opacity="0.08"/>
<rect x="2178.5" y="693.5" width="99" height="99" stroke="#4680F5"/>
<rect x="1485.5" y="99.5" width="99" height="99" fill="white" fill-opacity="0.04"/>
<rect x="1485.5" y="99.5" width="99" height="99" stroke="#4680F5"/>
<rect x="2178.5" y="99.5" width="99" height="99" fill="white" fill-opacity="0.04"/>
<rect x="2178.5" y="99.5" width="99" height="99" stroke="#4680F5"/>
<rect x="1485.5" y="495.5" width="99" height="99" fill="white" fill-opacity="0.12"/>
<rect x="1485.5" y="495.5" width="99" height="99" stroke="#4680F5"/>
<rect x="2178.5" y="495.5" width="99" height="99" fill="white" fill-opacity="0.04"/>
<rect x="2178.5" y="495.5" width="99" height="99" stroke="#4680F5"/>
<rect x="1485.5" y="198.5" width="99" height="99" fill="white" fill-opacity="0.04"/>
<rect x="1485.5" y="198.5" width="99" height="99" stroke="#4680F5"/>
<rect x="2178.5" y="198.5" width="99" height="99" fill="white" fill-opacity="0.04"/>
<rect x="2178.5" y="198.5" width="99" height="99" stroke="#4680F5"/>
<rect x="1485.5" y="594.5" width="99" height="99" fill="white" fill-opacity="0.04"/>
<rect x="1485.5" y="594.5" width="99" height="99" stroke="#4680F5"/>
<rect x="2178.5" y="594.5" width="99" height="99" fill="white" fill-opacity="0.04"/>
<rect x="2178.5" y="594.5" width="99" height="99" stroke="#4680F5"/>
<rect x="1485.5" y="0.5" width="99" height="99" fill="white" fill-opacity="0.08"/>
<rect x="1485.5" y="0.5" width="99" height="99" stroke="#4680F5"/>
<rect x="2178.5" y="0.5" width="99" height="99" fill="white" fill-opacity="0.04"/>
<rect x="2178.5" y="0.5" width="99" height="99" stroke="#4680F5"/>
<rect x="1485.5" y="396.5" width="99" height="99" fill="white" fill-opacity="0.04"/>
<rect x="1485.5" y="396.5" width="99" height="99" stroke="#4680F5"/>
<rect x="2178.5" y="396.5" width="99" height="99" fill="white" fill-opacity="0.04"/>
<rect x="2178.5" y="396.5" width="99" height="99" stroke="#4680F5"/>
<rect width="2278" height="793" fill="url(#paint0_linear_1712_26)"/>
<defs>
<linearGradient id="paint0_linear_1712_26" x1="1139.86" y1="736.081" x2="1139.86" y2="11.5766" gradientUnits="userSpaceOnUse">
<stop stop-color="#0D53E0"/>
<stop offset="1" stop-color="#0D53E0" stop-opacity="0"/>
</linearGradient>
</defs>
</svg>
