<svg width="302" height="136" viewBox="0 0 302 136" fill="none" xmlns="http://www.w3.org/2000/svg">
<path d="M147.684 134.304V94.4863H167.406C171.35 94.4863 174.346 95.455 176.393 97.3923C178.439 99.3296 179.465 101.979 179.47 105.342C179.488 106.979 178.997 108.582 178.065 109.931C177.208 111.209 175.984 112.199 174.552 112.774C175.39 113.094 176.189 113.506 176.934 114.004C177.689 114.52 178.342 115.171 178.859 115.925C179.436 116.771 179.874 117.702 180.159 118.684C180.503 119.904 180.666 121.168 180.643 122.435C180.643 126.077 179.416 128.964 176.962 131.097C174.507 133.23 170.748 134.299 165.685 134.304H147.684ZM155.764 101.409V110.05H166.303C169.685 110.05 171.376 108.609 171.376 105.726C171.376 104.212 170.943 103.113 170.076 102.429C169.209 101.744 167.804 101.404 165.86 101.409H155.764ZM166.38 127.556C167.205 127.603 168.031 127.485 168.808 127.208C169.586 126.931 170.299 126.5 170.905 125.942C171.44 125.407 171.86 124.769 172.14 124.068C172.42 123.367 172.554 122.617 172.535 121.862C172.535 120.102 172.001 118.821 170.933 118.02C169.625 117.154 168.069 116.734 166.5 116.826H155.764V127.556H166.38Z" fill="white"/>
<path d="M196.867 135.085C194.661 135.124 192.468 134.737 190.41 133.946C188.603 133.233 186.971 132.142 185.625 130.747C184.293 129.345 183.275 127.679 182.639 125.857C181.94 123.835 181.593 121.709 181.613 119.57C181.589 117.406 181.948 115.254 182.674 113.213C183.309 111.381 184.34 109.709 185.695 108.315C187.05 106.921 188.695 105.839 190.515 105.145C192.547 104.376 194.707 103.999 196.881 104.035C199.022 104.001 201.15 104.378 203.148 105.145C204.93 105.84 206.544 106.902 207.884 108.261C209.227 109.66 210.256 111.327 210.905 113.151C211.632 115.213 211.988 117.386 211.959 119.57C211.99 121.744 211.633 123.905 210.905 125.955C210.246 127.774 209.218 129.438 207.884 130.845C206.543 132.222 204.918 133.295 203.12 133.988C201.125 134.748 199.003 135.12 196.867 135.085ZM196.867 128.547C201.649 128.547 204.041 125.55 204.041 119.556C204.041 113.563 201.649 110.582 196.867 110.615C192.075 110.615 189.681 113.595 189.686 119.556C189.691 125.517 192.084 128.514 196.867 128.547Z" fill="white"/>
<path d="M233.038 134.303C232.773 133.447 232.61 132.564 232.553 131.67C231.536 132.771 230.276 133.623 228.871 134.157C227.181 134.807 225.379 135.123 223.567 135.086C220.143 135.086 217.639 134.336 216.056 132.836C215.265 132.085 214.644 131.175 214.233 130.167C213.823 129.159 213.632 128.076 213.674 126.99C213.592 125.243 213.944 123.504 214.7 121.925C215.346 120.699 216.318 119.672 217.51 118.956C218.848 118.188 220.306 117.649 221.824 117.364C223.489 117.028 225.337 116.714 227.283 116.435C229.23 116.155 230.579 115.785 231.267 115.324C231.615 115.046 231.89 114.688 232.068 114.28C232.246 113.873 232.321 113.429 232.288 112.986C232.255 112.544 232.114 112.116 231.877 111.739C231.641 111.363 231.316 111.049 230.93 110.825C229.809 110.237 228.549 109.96 227.283 110.022C225.471 110.022 224.178 110.42 223.391 111.216C222.572 112.093 222.055 113.206 221.915 114.395H214.636C214.664 112.967 214.918 111.553 215.388 110.204C215.845 108.937 216.613 107.803 217.622 106.906C218.786 105.912 220.156 105.184 221.634 104.776C223.599 104.238 225.632 103.986 227.67 104.028C229.678 103.983 231.68 104.247 233.607 104.811C235.078 105.234 236.423 106.006 237.528 107.06C238.538 108.08 239.275 109.337 239.671 110.713C240.132 112.321 240.355 113.987 240.331 115.659V134.31L233.038 134.303ZM232.49 119.85C231.993 120.307 231.393 120.637 230.74 120.814C229.649 121.13 228.542 121.389 227.424 121.59C225.176 122.03 223.623 122.596 222.78 123.273C222.353 123.631 222.017 124.082 221.798 124.591C221.578 125.101 221.481 125.654 221.515 126.207C221.515 128.41 222.782 129.511 225.316 129.511C226.277 129.518 227.23 129.345 228.127 129.001C228.953 128.679 229.711 128.205 230.361 127.604C230.984 127.022 231.494 126.331 231.865 125.565C232.249 124.792 232.446 123.94 232.441 123.078L232.49 119.85Z" fill="white"/>
<path d="M243.472 134.304V104.804H250.828V108.339C251.372 107.456 252.055 106.665 252.852 105.998C253.509 105.467 254.24 105.034 255.023 104.713C255.746 104.419 256.508 104.226 257.285 104.14C258.065 104.061 258.848 104.022 259.632 104.021H260.658V111.999C259.94 111.88 259.214 111.819 258.487 111.817C253.704 111.817 251.313 114.197 251.313 118.956V134.324L243.472 134.304Z" fill="white"/>
<path d="M282.256 134.303L282.193 130.706C280.389 133.626 277.635 135.085 273.93 135.085C272.143 135.108 270.373 134.741 268.745 134.01C267.176 133.29 265.793 132.221 264.705 130.887C263.51 129.412 262.608 127.724 262.049 125.914C261.376 123.759 261.051 121.512 261.086 119.256C261.063 117.18 261.335 115.11 261.894 113.109C262.381 111.366 263.191 109.729 264.283 108.282C265.292 106.947 266.604 105.868 268.112 105.132C269.721 104.368 271.487 103.988 273.269 104.021C275.01 103.989 276.73 104.396 278.269 105.203C279.809 106.011 281.117 107.192 282.073 108.638V94.0039H289.802V134.303H282.256ZM275.743 128.715C276.661 128.72 277.568 128.512 278.391 128.105C279.213 127.699 279.928 127.106 280.478 126.375C281.807 124.619 282.478 122.457 282.375 120.262C282.375 113.864 280.183 110.664 275.799 110.664C271.297 110.664 269.047 113.691 269.047 119.745C268.942 122.04 269.599 124.306 270.916 126.193C271.447 126.979 272.166 127.622 273.008 128.065C273.851 128.507 274.79 128.735 275.743 128.729V128.715Z" fill="white"/>
<path d="M166.921 89.401C160.729 89.401 155.975 87.601 152.658 84.0012C149.342 80.4013 147.684 75.2251 147.684 68.4725C147.64 65.3992 148.066 62.3371 148.948 59.3914C149.696 56.8859 150.97 54.5668 152.686 52.5875C154.343 50.7258 156.408 49.2678 158.722 48.3264C163.999 46.3715 169.807 46.369 175.086 48.3194C177.403 49.2498 179.461 50.7209 181.086 52.6085C182.768 54.6253 184.018 56.9618 184.761 59.4752C185.648 62.444 186.077 65.5294 186.033 68.6262C186.033 75.4999 184.393 80.6761 181.114 84.1549C177.835 87.6336 173.104 89.3823 166.921 89.401ZM166.921 82.2618C168.367 82.271 169.799 81.9956 171.137 81.4515C172.471 80.9115 173.659 80.0696 174.608 78.9926C175.663 77.7693 176.453 76.3423 176.927 74.8013C177.532 72.8212 177.819 70.7583 177.777 68.689C177.777 63.9668 176.852 60.3879 175.002 57.9523C173.151 55.5167 170.456 54.2966 166.914 54.292C163.378 54.292 160.663 55.5121 158.771 57.9523C156.879 60.3926 155.942 63.9715 155.961 68.689C155.961 73.4065 156.916 76.8527 158.827 79.0275C160.738 81.2023 163.436 82.2804 166.921 82.2618Z" fill="white"/>
<path d="M207.518 88.0239V70.1481C207.518 67.8708 207.137 66.3317 206.373 65.5307C205.607 64.7343 204.3 64.3292 202.452 64.3292C198.391 64.3292 196.361 66.5878 196.361 71.1051V88.0239H188.52V58.5172H195.995V62.8343C196.833 61.2427 198.11 59.922 199.677 59.0272C201.503 58.0994 203.538 57.6543 205.586 57.7349C206.919 57.722 208.245 57.9346 209.507 58.3636C210.671 58.7555 211.733 59.4024 212.612 60.2566C213.505 61.1326 214.204 62.1842 214.664 63.3442C215.194 64.6897 215.452 66.1258 215.423 67.5704V88.0239H207.518Z" fill="white"/>
<path d="M147.684 40.4881V0.670898H167.406C171.35 0.670898 174.346 1.63955 176.393 3.57686C178.439 5.51416 179.465 8.16398 179.47 11.5263C179.488 13.1635 178.997 14.7663 178.065 16.1158C177.208 17.3931 175.984 18.3839 174.552 18.9589C175.39 19.2784 176.189 19.6908 176.934 20.1883C177.689 20.7046 178.342 21.356 178.859 22.1093C179.438 22.9666 179.876 23.9097 180.159 24.9035C180.503 26.1238 180.666 27.3875 180.643 28.6547C180.643 32.2918 179.416 35.1791 176.962 37.3167C174.507 39.4542 170.748 40.5254 165.685 40.53L147.684 40.4881ZM155.764 7.55858V16.1856H166.303C169.685 16.1856 171.376 14.7443 171.376 11.8616C171.376 10.3434 170.943 9.2444 170.076 8.56448C169.209 7.88456 167.804 7.5446 165.86 7.5446L155.764 7.55858ZM166.38 33.7052C167.205 33.753 168.031 33.6347 168.808 33.3574C169.586 33.0802 170.299 32.6496 170.905 32.0916C171.442 31.5576 171.863 30.9204 172.143 30.2189C172.424 29.5175 172.557 28.7665 172.535 28.012C172.535 26.2517 172.001 24.971 170.933 24.17C169.625 23.3033 168.069 22.8839 166.5 22.9755H155.764V33.7052H166.38Z" fill="white"/>
<path d="M201.547 40.4881V36.3457C199.537 39.6056 196.462 41.2355 192.321 41.2355C190.924 41.2532 189.538 40.9894 188.246 40.4601C187.043 39.9516 185.963 39.1944 185.077 38.2388C184.16 37.2428 183.445 36.0807 182.969 34.8159C182.451 33.3947 182.196 31.8917 182.218 30.3801V10.9814H190.059V29.2135C190.059 32.8879 191.729 34.7251 195.068 34.7251C195.923 34.7836 196.779 34.6436 197.569 34.3162C198.359 33.9889 199.062 33.4831 199.621 32.839C200.687 31.4589 201.232 29.7506 201.16 28.012V10.9814H208.938V40.4881H201.547Z" fill="white"/>
<path d="M232.7 40.4882L232.637 36.8837C230.829 39.8036 228.075 41.2636 224.374 41.2636C222.587 41.2863 220.817 40.9191 219.189 40.1878C217.62 39.4677 216.238 38.3995 215.149 37.0653C213.954 35.59 213.053 33.9021 212.493 32.0917C211.82 29.9372 211.495 27.6902 211.53 25.4345C211.506 23.3573 211.78 21.2872 212.345 19.2873C212.827 17.5436 213.635 15.9059 214.727 14.4603C215.727 13.1237 217.029 12.0397 218.528 11.2959C220.137 10.5323 221.903 10.1521 223.686 10.1852C225.425 10.1517 227.144 10.5563 228.683 11.3612C230.222 12.1661 231.532 13.3452 232.489 14.7886V0.119141H240.218V40.4253L232.7 40.4882ZM226.187 34.8998C227.106 34.9072 228.013 34.6992 228.836 34.2926C229.659 33.886 230.374 33.2923 230.923 32.5597C232.251 30.8039 232.922 28.6423 232.82 26.4474C232.82 20.0487 230.628 16.8493 226.243 16.8493C221.742 16.8493 219.491 19.888 219.491 25.9654C219.389 28.2598 220.046 30.5242 221.36 32.413C221.894 33.1874 222.61 33.8197 223.447 34.2545C224.284 34.6893 225.215 34.9133 226.159 34.9068L226.187 34.8998Z" fill="white"/>
<path d="M263.918 40.4882L263.854 36.8837C262.051 39.8036 259.297 41.2636 255.592 41.2636C253.805 41.2863 252.035 40.9191 250.406 40.1878C248.837 39.4677 247.455 38.3995 246.366 37.0653C245.171 35.59 244.27 33.9021 243.71 32.0917C243.037 29.9372 242.713 27.6902 242.748 25.4345C242.723 23.3573 242.998 21.2872 243.563 19.2873C244.044 17.5436 244.852 15.9059 245.945 14.4603C246.952 13.1203 248.264 12.036 249.774 11.2959C251.383 10.5323 253.149 10.1521 254.931 10.1852C256.67 10.1511 258.39 10.5554 259.929 11.3603C261.468 12.1653 262.778 13.3447 263.735 14.7886V0.119141H271.464V40.4253L263.918 40.4882ZM257.404 34.8998C258.323 34.9072 259.231 34.6992 260.054 34.2926C260.876 33.886 261.591 33.2923 262.14 32.5597C263.469 30.8039 264.14 28.6423 264.037 26.4474C264.037 20.072 261.845 16.8843 257.461 16.8843C252.954 16.8843 250.704 19.923 250.708 26.0003C250.607 28.2947 251.263 30.5592 252.577 32.4479C253.117 33.2198 253.84 33.8478 254.682 34.2766C255.524 34.7053 256.459 34.9218 257.404 34.9068V34.8998Z" fill="white"/>
<path d="M293.477 36.5832C292.869 37.947 291.786 39.0462 290.427 39.6778C288.881 40.4335 287.176 40.8118 285.453 40.7815C283.972 40.7987 282.5 40.5453 281.111 40.034C279.823 39.5629 278.65 38.8274 277.668 37.8755C276.694 36.9184 275.924 35.7756 275.405 34.5155C274.844 33.1142 274.566 31.616 274.59 30.1077V10.9814H282.439V28.969C282.439 32.6481 284.106 34.4876 287.441 34.4876C289.05 34.5618 290.623 34.002 291.818 32.9298C292.361 32.4239 292.789 31.8092 293.075 31.1264C293.361 30.4436 293.498 29.7083 293.477 28.969V10.9814H301.318V41.2635C301.353 43.1789 300.992 45.0811 300.257 46.8519C299.603 48.4215 298.615 49.8321 297.362 50.9873C296.103 52.1268 294.626 53.0033 293.02 53.5649C291.309 54.1729 289.504 54.4779 287.687 54.466C283.303 54.466 280.024 53.367 277.85 51.1689C275.677 48.9708 274.59 45.9437 274.59 42.0878H281.883C281.842 42.8456 281.958 43.6037 282.224 44.3151C282.49 45.0264 282.9 45.6759 283.429 46.2232C284.455 47.2198 285.994 47.7181 288.045 47.7181C288.754 47.7222 289.455 47.5695 290.097 47.271C290.746 46.9651 291.331 46.5383 291.818 46.0136C292.345 45.426 292.753 44.7429 293.02 44.0018C293.332 43.1564 293.487 42.2617 293.477 41.3613V36.5832Z" fill="white"/>
<path d="M29.3068 121.743C29.3068 129.923 23.5032 135.714 15.3037 135.714C6.99875 135.749 0.808691 129.853 0.717351 121.848C0.700672 119.953 1.06098 118.073 1.77755 116.317C2.49411 114.561 3.5528 112.963 4.89272 111.616C6.23264 110.268 7.82734 109.197 9.58511 108.464C11.3429 107.731 13.229 107.351 15.1351 107.346C17.0205 107.352 18.8859 107.731 20.6227 108.46C22.3596 109.19 23.9331 110.255 25.2519 111.595C26.5707 112.935 27.6083 114.522 28.3044 116.264C29.0006 118.006 29.3413 119.869 29.3068 121.743Z" fill="white"/>
<path d="M137.503 119.11C137.536 121.316 137.276 123.517 136.73 125.655C134.784 132.899 128.748 136.629 120.752 135.665C113.993 134.848 109.068 129.239 108.991 121.813C108.864 108.862 108.991 95.9112 108.913 82.9671C108.871 77.267 107.044 72.426 101.557 69.6179C95.8727 66.7189 90.055 67.648 85.1789 72.412C78.8553 78.6082 72.6793 84.937 66.3206 91.0912C62.2735 95.0031 57.5028 97.2244 51.65 96.0299C49.6403 95.6195 47.7467 94.7724 46.1048 93.5493C44.4628 92.3262 43.1132 90.7574 42.1524 88.9551C41.1916 87.1528 40.6435 85.1616 40.5472 83.1241C40.4509 81.0866 40.8089 79.0531 41.5955 77.1692C42.7562 74.5413 44.4276 72.1674 46.5138 70.1837C52.5212 64.2181 58.5778 58.3084 64.5008 52.252C69.6229 47.0478 70.5644 41.4454 67.487 35.7802C64.9084 31.0371 60.8191 28.7039 55.4652 28.676C42.4387 28.6271 29.4121 28.676 16.3926 28.676C8.48818 28.676 3.26774 24.9667 1.27933 18.1978C-1.49601 8.73247 5.28425 0.301001 15.8305 0.273059C33.7754 0.21019 51.7202 0.273059 69.6651 0.273059H121.771C132.086 0.273059 137.433 5.53312 137.454 15.8856C137.496 40.0553 137.496 64.2251 137.454 88.3948C137.482 98.6122 137.498 108.851 137.503 119.11Z" fill="white"/>
</svg>
